<svg xmlns="http://www.w3.org/2000/svg" xmlns:xlink="http://www.w3.org/1999/xlink" viewBox="0 0 1842.8 1090.34"><defs><style>.cls-1{fill:none;}.cls-2{clip-path:url(#clip-path);}.cls-3{fill:url(#linear-gradient);}</style><clipPath id="clip-path" transform="translate(0 -115.27)"><rect class="cls-1" x="271.29" width="1353.71" height="969.23"/></clipPath><linearGradient id="linear-gradient" x1="921.4" y1="983.65" x2="921.4" y2="176.1" gradientUnits="userSpaceOnUse"><stop offset="0.16" stop-color="#fff" stop-opacity="0"/><stop offset="1" stop-color="#fff" stop-opacity="0.7"/></linearGradient></defs><title>Asset 2</title><g id="Layer_2" data-name="Layer 2"><g id="_ÎÓÈ_1" data-name="—ÎÓÈ_1"><g class="cls-2"><path class="cls-3" d="M224.5,1123.9c-9.76-15.43-17-31.87-24.23-55a269.14,269.14,0,0,0-10.5-26.63c-4.55-10.46-9.26-21.27-12.16-32.4-16.8-64.69,51.47-112.08,81.6-129.45l5.3-3c34.88-20,70.95-40.72,84.33-80.29,13.85-41,11.89-93.82,10.45-132.39-.82-22-5.51-44.55-10-66.38-5.84-28.14-11.88-57.24-9.76-85.57,3.92-52.18,57.18-77.95,88.57-88.67,42.29-14.44,82.24-10.78,122.14,11.17,9,5,17.77,10.06,26.28,15,34,19.73,66,38.37,106.9,45.18,123.93,20.68,174-20.37,186.42-33.44C893,437.5,895.06,403.85,897,371.31c1.41-23.4,2.86-47.61,12.1-68.54,7.91-17.93,20.89-30.24,37.53-35.6,19.67-6.33,44.05-2.66,65.21,9.81,36.36,21.44,59.58,18.45,97.5,11.32,15.14-2.85,30.53-4,45.41-5.2,6.57-.51,13.37-1,20.08-1.7,13.89-1.38,24.23-3.3,30.8-15.64,3.17-6,5.2-13.62,7.16-21,3.38-12.74,6.87-25.92,16.44-30.77,5.89-3,13.41-2.59,23,1.18,27.73,10.88,64.81,39.49,82.66,63.79,10.58,14.39,17.75,30.85,24.69,46.77,11.78,27,22.9,52.57,49.37,69.84,13.45,8.78,26.62,11.53,39.14,8.18,32-8.58,55.76-55.57,73.12-89.88,5.56-11,10.82-21.36,15.53-28.92,17.17-27.54,36-36.9,62.83-31.34,12.25,2.54,24.22,5.91,35.8,9.18,23.38,6.59,45.47,12.81,70.25,13,47.57.49,92.74-15.93,136.44-31.72l.7,1.93c-43.87,15.85-89.25,32.25-137.16,31.84-25.06-.21-48.31-6.76-70.79-13.1-11.54-3.25-23.48-6.62-35.65-9.14-26.23-5.44-43.81,3.37-60.68,30.42-4.66,7.48-9.9,17.81-15.44,28.76-18.52,36.58-41.56,82.12-74.42,90.93-13.11,3.51-26.84.67-40.79-8.44-27-17.61-38.75-44.62-50.14-70.74-6.89-15.82-14-32.17-24.45-46.38-17.66-24-54.34-52.33-81.76-63.09-9-3.55-16-4-21.34-1.26-8.76,4.44-12,16.6-15.39,29.47-2,7.51-4,15.28-7.33,21.45-7,13.21-18.35,15.33-32.41,16.72-6.73.67-13.53,1.2-20.12,1.71-14.83,1.15-30.16,2.34-45.19,5.16-38.4,7.23-61.93,10.25-98.92-11.56-20.67-12.18-44.41-15.77-63.54-9.62-16.07,5.17-28.61,17.09-36.28,34.47-9.09,20.59-10.53,44.61-11.93,67.84-2,32.9-4,66.93-27.79,92-19.44,20.51-49.47,33.21-89.24,37.77-39.6,4.53-79-.38-99-3.71-41.22-6.88-73.46-25.61-107.59-45.44-8.5-4.93-17.28-10-26.24-15-39.37-21.66-78.78-25.27-120.48-11-30.92,10.55-83.36,35.88-87.19,86.88-2.11,28,3.91,57,9.72,85,4.55,21.9,9.25,44.55,10.08,66.71,1.44,38.73,3.42,91.78-10.56,133.12-13.63,40.32-50,61.21-85.25,81.42l-5.29,3c-29.73,17.14-97.09,63.82-80.64,127.15,2.85,11,7.53,21.72,12.05,32.1,3.79,8.69,7.71,17.68,10.57,26.84,7.18,22.92,14.36,39.22,24,54.49Zm11.61,9.54-3.77-10.67c-8-22.65-16.29-46.06-23.62-69.35l-1.07-3.38c-10.71-33.92-24.05-76.14,1-106.6,17-20.62,42.24-33.16,66.69-45.28,12-5.95,24.41-12.11,35.38-19C344.06,858,362.07,830,369.09,788.34c7.6-45,11.05-86.85,10.25-124.32-.42-19.8-5.35-41.41-10.58-64.29-13.09-57.37-26.64-116.68,34.68-146.66,35-17.1,76.88-21.6,112.08-12,24.14,6.57,45.53,20.24,66.22,33.45,10.37,6.63,21.11,13.49,32,19.35,31.22,16.74,65.47,24.36,111,24.69q7,.06,14.15.17c37.93.53,80.93,1.13,115.77-13.82,41.93-18,53.12-61.66,61-104.83.67-3.69,1.3-7.54,2-11.61,4.92-30,11-67.4,41.8-78.9,26-9.73,58.42-3,87,3,9.17,1.92,17.83,3.72,26,5,17.62,2.69,38.4,5.2,58.93,3.51,21.49-1.77,39.55-7.92,55.23-18.78,6.86-4.75,13.56-10.43,20-15.91,17.26-14.64,35.11-29.77,59.1-30.5,29.14-.89,39.09,29.19,47.83,55.74,2.35,7.15,4.57,13.91,7.09,19.87,13.82,32.8,54.4,82.27,90.53,100.81,31.68,16.27,56.33-8.8,80.16-33q3.71-3.78,7.43-7.51c12.52-12.47,22.17-28.46,31.5-43.93,12.3-20.37,25-41.45,44.41-54.65,32.35-22,64.53,7.88,88,29.71l2.83,2.62.7-.75-2.83-2.62c-23.75-22.07-56.28-52.3-89.3-29.81-19.58,13.33-32.35,34.5-44.71,55-9.3,15.41-18.92,31.35-31.34,43.73-2.49,2.48-5,5-7.45,7.52-24.65,25.07-47.94,48.76-79,32.84-35.94-18.45-76.31-67.66-90.06-100.3-2.5-5.93-4.71-12.66-7.06-19.79-8.72-26.5-18.58-56.47-47.52-56.47l-1.31,0c-24.35.75-42.34,16-59.74,30.74-6.45,5.47-13.12,11.13-19.94,15.86-19.9,13.78-47.41,25.15-113.42,15.1-8.19-1.25-16.83-3.05-26-5-28.7-6-61.23-12.78-87.55-2.94-31.31,11.7-37.49,49.4-42.46,79.7-.66,4.06-1.29,7.9-2,11.59-8.15,44.67-18.9,86.25-60.4,104.06C819.69,518.8,776.82,518.21,739,517.68c-4.8-.07-9.52-.14-14.16-.17-45.4-.34-79.49-7.92-110.56-24.58-10.9-5.84-21.62-12.69-32-19.31-20.75-13.25-42.21-27-66.5-33.57-35.43-9.63-77.6-5.11-112.8,12.1C340.94,482.48,354.58,542.2,367.76,600,373,622.78,377.9,644.34,378.32,664c.79,37.41-2.66,79.17-10.24,124.13-7,41.35-24.84,69.13-57.92,90.07-10.93,6.92-23.31,13.06-35.28,19-24.56,12.17-49.94,24.76-67,45.55-25.39,30.89-12,73.4-1.16,107.57l1.06,3.37c7.33,23.3,15.62,46.73,23.63,69.38l3.77,10.67Zm6.14-71.88c-1.39-2.82-2.86-5.74-4.38-8.75-14.07-27.83-31.57-62.47-14-90.58,15-24,45.2-37.82,71.8-50,6.38-2.92,12.4-5.67,18.09-8.49,34.38-17.07,53.31-35.74,65.35-64.45a356.36,356.36,0,0,0,26.3-109.45c2.14-30.13-2.27-60.66-6.54-90.19-.95-6.6-1.94-13.42-2.83-20.1-.76-5.72-1.72-11.71-2.74-18-4.88-30.42-10.42-64.89,2.35-90.93,14.47-29.46,54.79-46.18,87.14-47.46,32.74-1.29,53.06,16.85,74.59,36.05,4.34,3.87,8.82,7.87,13.45,11.75,26.95,22.59,59.07,27.65,93.08,33l10.19,1.62c34.48,5.51,67,10.72,101.42,3.78,48.15-9.7,86.34-23.47,113.51-40.9,33-21.17,41.46-57.72,49.64-93.06.59-2.53,1.17-5.05,1.76-7.57,6.8-28.88,15.26-64.82,54-69.51,27.23-3.3,54.85,3.09,81.55,9.27,9.94,2.31,20.21,4.69,30.2,6.49,41.72,7.52,68.81-6.76,104.19-35.74,16.48-13.51,37-30.31,54.45-26.49,9.1,2,16.59,9.25,22.89,22.19,4.12,8.45,7.61,16.74,11,24.76,10,23.88,19.54,46.43,42.76,65.07,4,3.18,8.15,6.68,12.58,10.39,26.27,22,58.8,49.18,90.79,49.17.87,0,1.75,0,2.62-.06,33.43-1.58,50.54-27.68,67.08-52.92,9.18-14,18.67-28.49,30.77-38.24,11.85-9.56,21.56-5.1,33.85.53,1.49.69,3,1.39,4.58,2.07,27.66,12.17,57,15.76,89.58,11,46.73-6.86,91.7-24.95,135.19-42.44l13.63-5.46-.38-1-13.63,5.47c-43.44,17.47-88.35,35.53-134.95,42.37-32.43,4.77-61.55,1.2-89-10.89-1.55-.68-3.07-1.38-4.56-2.06-12.12-5.55-22.58-10.35-34.92-.4s-21.76,24.41-31,38.48c-16.4,25-33.36,50.9-66.27,52.46-32.45,1.5-65.85-26.42-92.7-48.88-4.44-3.71-8.63-7.22-12.6-10.4-23-18.48-32.46-40.91-42.45-64.66-3.38-8-6.88-16.35-11-24.82-6.44-13.24-14.16-20.67-23.59-22.74-17.93-3.92-38.67,13.05-55.32,26.69-35.15,28.79-62,43-103.36,35.53-10-1.8-20.22-4.18-30.15-6.48-26.79-6.2-54.48-12.62-81.9-9.29-39.42,4.78-48,41.11-54.84,70.3-.6,2.51-1.18,5-1.77,7.57-8.13,35.14-16.54,71.48-49.2,92.43-27.06,17.36-65.13,31.07-113.15,40.76-34.2,6.89-66.68,1.7-101.06-3.79l-10.19-1.62c-33.86-5.34-65.85-10.38-92.58-32.78-4.62-3.87-9.1-7.87-13.43-11.74-21.69-19.34-42.16-37.58-75.31-36.31-32.66,1.3-73.38,18.21-88,48-12.91,26.33-7.35,61-2.44,91.54,1,6.33,2,12.31,2.73,18,.9,6.69,1.88,13.52,2.84,20.12,4.25,29.47,8.65,60,6.52,90a354.64,354.64,0,0,1-26.22,109.13c-13.94,33.25-36,49.6-64.85,63.92-5.68,2.82-11.7,5.57-18.06,8.48-26.74,12.22-57,26.08-72.25,50.38-17.91,28.6-.26,63.52,13.92,91.59,1.52,3,3,5.92,4.37,8.73Zm778.36,18.38c20.06-36.36,34.1-76,38.5-108.78,2.05-15.24-2.65-26.18-7.62-37.76-2.07-4.84-4.22-9.84-6-15.42-8.06-25,3.11-49.2,15.1-69.63,12.57-21.43,28.53-44.9,51.59-56.58,16.22-8.2,33.12-8.23,51-8.25,4.85,0,9.86,0,14.8-.21,38.29-1.46,83-32.89,104.16-62.42,15.85-22.15,7.11-45.86-1.35-68.78-5.79-15.73-11.79-32-10.14-47.92,4-38.8,30.35-73,68.78-89.24,32.3-13.64,59.79-15.37,94.9-6,35.5,9.53,59.44,2.84,77.63-21.68,4.06-5.47,7.72-11.23,11.26-16.8,12.55-19.73,24.41-38.37,51.67-41.3,10.46-1.12,20.73.9,30.66,2.85,4.38.86,8.91,1.75,13.43,2.37,17.13,2.34,33.66.22,49.13-2.16l-.16-1c-15.39,2.36-31.84,4.48-48.83,2.15-4.49-.61-9-1.5-13.37-2.36-10-2-20.37-4-31-2.86C1547,431.18,1535,450,1522.34,470c-3.53,5.55-7.18,11.3-11.22,16.74-17.9,24.13-41.5,30.7-76.54,21.3-35.34-9.49-63-7.75-95.56,6-38.78,16.39-65.37,50.91-69.41,90.08-1.66,16.17,4.37,32.54,10.21,48.37,8.75,23.72,17,46.13,1.48,67.83-21,29.33-65.4,60.55-103.37,62-4.92.18-9.92.19-14.76.2-17.22,0-35,0-51.47,8.37-23.3,11.79-39.37,35.42-52,57-12.1,20.63-23.38,45.13-15.19,70.47,1.82,5.62,4,10.64,6.06,15.5,5.13,12,9.55,22.26,7.54,37.23-4.39,32.64-18.37,72.16-38.38,108.41-30.93,56.09-82.89,89.45-137.92,121.45l.52.88C937.47,1169.7,989.55,1136.25,1020.61,1079.94Zm13.18,36.36c8.38-18,17-36.7,24.71-55.42,10.63-26,23.86-58.29,19.32-88.59-1.6-10.74-6.27-20.08-10.79-29.12a156.56,156.56,0,0,1-7.88-17.55c-11.55-32.66,11.77-71.75,25.71-95.11,19.49-32.68,43.41-31.09,76.5-28.87l7.71.5c41,2.49,67.77-14.72,95.43-41.35,31-29.79,38.82-55.34,29-94.28l-.26-1c-9.25-36.8-17.24-68.58,7.94-101.5,23.15-30.27,53.24-47.23,84.74-47.78,13.34-.23,27.39,2.84,42.3,6.09,23.44,5.1,47.68,10.38,68.53,1.73,16.34-6.77,26.24-21.22,35.82-35.21,10.39-15.17,21.14-30.87,40.18-36.88,34.08-10.76,70.46,11.34,97,27.48l.53-.88c-26.73-16.24-63.32-38.48-97.86-27.58-19.37,6.12-30.23,22-40.72,37.28-9.49,13.86-19.31,28.19-35.36,34.85-20.56,8.51-44.64,3.27-67.92-1.8-14.31-3.11-29.14-6.35-42.54-6.1-31.82.55-62.19,17.66-85.53,48.17-25.48,33.32-17.44,65.32-8.13,102.38l.26,1c9.68,38.52,1.89,63.8-28.75,93.29-27.47,26.44-54.1,43.56-94.65,41.06l-7.71-.5c-33.47-2.24-57.64-3.85-77.46,29.37-14,23.51-37.5,62.87-25.79,96a159.06,159.06,0,0,0,7.93,17.67c4.48,9,9.11,18.23,10.7,28.81,4.5,30-8.68,62.2-19.26,88-7.66,18.7-16.32,37.34-24.69,55.37l-1.47,3.17.93.43Zm57.93-151.73c-4.54-10.41-9.24-21.18-9.21-32.91.1-31.25,10.91-62.33,31.27-89.89,8.76-11.87,18.87-23.13,33.38-25.2,8.06-1.15,16,1.11,23.61,3.3,6.84,2,13.9,4,21.23,3.65,16.56-.76,30.55-10,44.08-19q2.7-1.8,5.35-3.53c5.28-3.42,10.87-6.63,16.26-9.73,8.55-4.9,17.38-10,25.29-16.07,26.75-20.61,42.86-58.58,41-96.74-.58-12.29-3.83-23.86-7-35.05-6.14-21.87-11.94-42.54,2.7-65.62,9.8-15.44,24.87-26.19,40.32-28.74,10-1.66,18.48,1,27.46,3.72,5.64,1.73,11.47,3.52,17.71,4.17,8.35.85,16.63-.53,24.64-1.87,8.35-1.4,17-2.84,25.72-1.77,7.78,1,16,3.6,23.9,6.16,14.21,4.6,28.91,9.36,43.1,5.34,19-5.39,21.57-20.14,24.27-35.77a124.9,124.9,0,0,1,3.25-15c4.41-14.41,20.8-27.12,43.57-23.53,13,2,21.23,10.74,30,19.95,6.11,6.44,12.42,13.11,20.49,17.24,29.48,15.09,62.1-4.51,83.68-17.48l-.53-.88c-21.39,12.85-53.71,32.27-82.68,17.45-7.91-4-14.16-10.65-20.21-17-8.46-8.94-17.21-18.17-30.54-20.27a45.38,45.38,0,0,0-27.27,4,33.33,33.33,0,0,0-17.44,20.29,126,126,0,0,0-3.28,15.14c-2.65,15.29-5.15,29.74-23.54,34.95-13.88,3.94-28.44-.77-42.51-5.32-8-2.58-16.21-5.25-24.09-6.21-8.89-1.09-17.59.37-26,1.78-8,1.33-16.15,2.71-24.36,1.86-6.14-.64-11.93-2.41-17.52-4.13-8.7-2.68-17.7-5.45-27.93-3.76-15.73,2.61-31.06,13.53-41,29.21-14.89,23.47-9,44.35-2.82,66.45,3.12,11.13,6.36,22.64,6.94,34.82,1.77,37.25-14.56,75.78-40.64,95.88-7.86,6.05-16.66,11.11-25.18,16-5.41,3.11-11,6.32-16.3,9.76-1.78,1.15-3.57,2.34-5.37,3.53-13.41,8.89-27.28,18.07-43.56,18.82-7.11.34-14.13-1.67-20.9-3.61-7.75-2.22-15.77-4.52-24-3.33-14.89,2.13-25.17,13.57-34.07,25.61-20.49,27.74-31.37,59-31.46,90.49,0,12,4.7,22.82,9.29,33.33,7.24,16.6,14.07,32.28.19,49.28l.8.65C1106,997.43,1099.09,981.47,1091.72,964.57Zm19.18,76.66c20.09-15.4,40.86-31.33,54-53.25,7.2-12.05,19.25-32.22,3.75-45.48-4.15-3.56-10.19-5.25-16-6.88-9.18-2.58-17.84-5-20.39-13.92-2.4-8.46.65-21.22,8.18-34.15,7.27-12.49,16.84-21.9,25-24.56,13.62-4.45,26.63-2.53,39.21-.68,10.37,1.53,21.11,3.11,32,1,23.2-4.43,55.07-33.15,62-55.87a108.8,108.8,0,0,0,3-14c1.46-8.84,2.85-17.18,8.57-24.93a98.2,98.2,0,0,1,11.31-12.2c6.57-6.31,12.78-12.27,16.4-21.76,2.43-6.37,3.68-13,4.9-19.48,1.66-8.82,3.38-17.94,8.13-26.17a72,72,0,0,1,5-7.25c4.68-6.2,8.72-11.56,5.82-20.92-1.63-5.25-4.9-9.39-8.06-13.4-4.41-5.6-8.58-10.89-8.67-19-.12-12.08,9.13-28.77,18.33-39,13.23-14.73,35.72-6.07,53.79.88,4,1.53,7.73,3,11.21,4.13,13.55,4.45,18.92,15.57,24.6,27.35,4.49,9.31,9.14,19,18.17,25.59,12.5,9.2,25.39-1.94,37.85-12.7a131.91,131.91,0,0,1,13.81-10.93c14.41-9.26,19.82-20.1,26.67-33.81,1.16-2.33,2.36-4.73,3.65-7.22,1.17-2.25,2.58-4.4,3.94-6.49,3.11-4.74,6.32-9.64,6.67-15.82.25-4.32-1-8.32-2.18-12.19-1.57-5.1-3.06-9.93-1.47-15.52,2.15-7.6,7.71-13.36,15.66-16.23,10-3.62,22.51-2.07,31.12,3.85,10.94,7.53,26.72,32.15,32,45.07l1-.39c-5.29-12.89-20.91-37.62-32.39-45.52a36.42,36.42,0,0,0-32.06-4c-8.27,3-14.06,9-16.3,16.92-1.67,5.89-.07,11.08,1.48,16.11,1.17,3.77,2.37,7.68,2.13,11.82-.33,5.91-3.33,10.48-6.5,15.32a76.67,76.67,0,0,0-4,6.58c-1.3,2.49-2.5,4.9-3.66,7.23-6.78,13.58-12.13,24.29-26.3,33.41a132.48,132.48,0,0,0-13.93,11c-12.15,10.5-24.72,21.37-36.57,12.65-8.83-6.49-13.42-16-17.86-25.21-5.78-12-11.23-23.29-25.2-27.88-3.46-1.14-7.2-2.58-11.16-4.1-18.36-7.07-41.22-15.87-54.92-.61-7.55,8.4-18.73,25.9-18.59,39.7.09,8.41,4.56,14.09,8.89,19.58,3.1,3.93,6.31,8,7.88,13.06,2.75,8.86-1.15,14-5.66,20a71.24,71.24,0,0,0-5.06,7.36c-4.85,8.37-6.58,17.58-8.26,26.48-1.21,6.41-2.45,13-4.85,19.31-3.54,9.28-9.66,15.16-16.15,21.39a98.33,98.33,0,0,0-11.42,12.34c-5.87,7.94-7.28,16.4-8.76,25.36a109.09,109.09,0,0,1-3,13.87c-6.85,22.43-38.32,50.79-61.23,55.17-10.73,2-21.37.47-31.66-1.05-12.7-1.87-25.82-3.8-39.68.73-17.27,5.65-39.31,40.65-33.81,60,2.7,9.47,12,12.09,21.09,14.62,5.73,1.61,11.65,3.27,15.63,6.67,13.7,11.73,5.13,29-4,44.18-13,21.76-33.69,37.62-53.7,53-7.11,5.45-14.47,11.09-21.29,16.87l.66.78C1096.46,1052.31,1103.8,1046.68,1110.9,1041.23Zm89.29-7.66-.11-1c-8.35.9-13.47-.07-15.66-3-3.2-4.25.12-12.41,3.64-21,.94-2.29,1.9-4.67,2.76-7,4.43-12.06,2.3-21.1-.16-31.57-.91-3.9-1.86-7.94-2.53-12.38l-.3-2.05c-2.46-16.61-3.81-25.76-14.95-39.37-7.17-8.75-9.94-14.93-9.29-20.66.57-5,3.87-9.71,10.08-14.49,14.62-11.25,26.45-5.23,39,1.15,11.49,5.86,23.38,11.91,38.62,6.07,9.07-3.47,19.55-11.94,31.14-25.16,4.24-4.83,6.65-10.77,9-16.5,2.94-7.23,5.71-14.05,11.82-18.86a51.54,51.54,0,0,1,13.44-7.38c7.79-3.21,13.41-5.52,14-20.41.63-15.93,4.29-18.86,11.58-24.7a105.76,105.76,0,0,0,9.62-8.47c7.68-7.7,8.89-18.62,10.06-29.18.45-4,.91-8.18,1.73-12,2.37-11,7.36-19.16,12.64-27.81,2.76-4.52,5.61-9.19,8.13-14.38,3.78-7.76,1.45-19.82-1-32.58-2.91-15-5.91-30.57,1.09-39.77,3.68-4.82,9.75-7.5,18.58-8.19,16.88-1.31,18.1,12.16,19.31,25.19a79.78,79.78,0,0,0,1.6,11.53c3.19,12.8,17.26,27.75,28.46,34.27s27.9,3.52,41.42,1.17c3-.53,5.91-1,8.58-1.41,18-2.52,20.71-11.21,24.2-22.2a85.28,85.28,0,0,1,5.49-14.13c4.64-9,13.14-11.73,22.15-14.67,7.63-2.49,15.52-5.06,20.94-11.72,5.85-7.2,5.29-18.59,4.76-29.61s-1-21.65,4.59-27.76c2.78-3,5.19-4.34,7.41-4.06,4.13.52,7.42,6.66,11.22,13.77l1.11,2.06a92.41,92.41,0,0,0,8.12,11.92c3.51,4.61,7.14,9.39,9.57,15,.74,1.73,1.39,3.32,2,4.79,4.69,11.42,6.26,15.26,23,20.57,13.11,4.15,25.77,4.76,39.17,5.41l2.38.12,0-1-2.38-.11c-13.34-.65-25.93-1.26-38.91-5.37-16.26-5.16-17.67-8.6-22.34-20-.6-1.47-1.26-3.06-2-4.81-2.48-5.78-6.15-10.6-9.7-15.26a92.15,92.15,0,0,1-8-11.79l-1.1-2.06c-3.94-7.35-7.35-13.71-12-14.3-2.57-.33-5.27,1.11-8.29,4.39-5.93,6.42-5.41,17.14-4.87,28.5.53,10.83,1.07,22-4.53,28.91-5.22,6.43-13,8.95-20.46,11.4-8.8,2.87-17.91,5.83-22.74,15.17a85.13,85.13,0,0,0-5.56,14.29c-3.51,11.07-6.05,19.06-23.37,21.5-2.68.37-5.56.88-8.61,1.41-13.35,2.32-30,5.21-40.73-1-11-6.41-24.84-21.09-28-33.63A78.35,78.35,0,0,1,1423.4,628c-1.2-12.9-2.53-27.51-20.41-26.12-9.13.71-15.45,3.52-19.31,8.59-7.29,9.56-4.24,25.34-1.29,40.59,2.44,12.59,4.74,24.48,1.11,31.93-2.5,5.14-5.34,9.79-8.09,14.29-5.32,8.73-10.36,17-12.76,28.13a121.7,121.7,0,0,0-1.75,12.11c-1.15,10.39-2.34,21.12-9.76,28.57a105.44,105.44,0,0,1-9.54,8.39c-7.53,6-11.31,9.06-12,25.46-.57,14.23-5.66,16.33-13.37,19.5a52,52,0,0,0-13.68,7.52c-6.33,5-9.28,12.25-12.14,19.28-2.3,5.66-4.68,11.51-8.8,16.22-11.48,13.09-21.82,21.46-30.74,24.87-14.82,5.68-26.49-.27-37.78-6-12.83-6.53-24.94-12.7-40.08-1-6.44,4.95-9.86,9.92-10.47,15.19-.87,7.58,4.32,15.08,9.51,21.42,11,13.39,12.31,22.44,14.74,38.87l.3,2c.67,4.49,1.62,8.54,2.54,12.47,2.43,10.3,4.52,19.21.2,31-.85,2.31-1.82,4.68-2.75,7-3.63,8.91-7.06,17.33-3.51,22.05,1.86,2.47,5.51,3.69,11.07,3.69A53.71,53.71,0,0,0,1200.19,1033.57Zm78,50.28c-17.07-1.25-18.81-9-21-18.79-1.43-6.4-3.06-13.64-9.38-20.09-3.76-3.83-8.15-5.41-12.39-6.94-5.67-2-11-4-13.82-11.25-4.56-11.8-2.88-29.34,5.15-53.62l.32-1c2-6.12,4.34-13.06,2.24-19.59-2.41-7.5-5-7.8-9.3-8.3a27.54,27.54,0,0,1-9.46-2.5c-12.31-5.76-22.06-25.11-19.88-39.3,9.66-.88,17.69,2.55,26.19,6.19a99,99,0,0,0,15,5.46c18.43,4.54,25.73-.76,39-10.39l3.18-2.3c2.83-2,5.69-4,8.56-6a273.61,273.61,0,0,0,23-17.28c7.14-6.19,9-13.27,10.8-20.11,1.44-5.5,2.94-11.2,7.25-16.3,5.09-6,13.71-10.1,22.05-14,5.73-2.71,11.66-5.51,16.23-8.9,14.51-10.74,12.7-16.74,9.42-27.62-.8-2.65-1.71-5.65-2.5-9.1-3.52-15.39,7.54-27.21,18.23-38.63,7.29-7.8,14.83-15.86,17.79-25,3.11-9.64-1-15.8-5.27-22.33-2.9-4.4-5.91-9-6.58-14.76-1.15-9.88,3.59-25.94,11.42-31.85,2.83-2.14,5.73-2.62,8.61-1.43,4.12,1.71,5.09,8.55,6,15.16.67,4.75,1.31,9.23,3.07,12,2.63,4.14,3.58,4.6,5.48,5.52a24.94,24.94,0,0,1,3.56,2c2.75,1.88,5.66,4.09,8.48,6.22,2.13,1.62,4.32,3.28,6.46,4.81,25.29,18.13,43.87,15.18,55,9.52,9-4.57,15.86-11.49,22.5-18.19,7.93-8,15.42-15.53,26-19,12-4,19.6-11,27.62-18.47,3.36-3.12,6.83-6.35,10.79-9.52,7.76-6.22,13.21-6.24,21.59-.07,3.37,2.47,6.68,5.12,9.88,7.68,4.24,3.39,8.64,6.9,13.34,10.17l.59-.84c-4.68-3.25-9.06-6.75-13.29-10.14-3.21-2.56-6.52-5.21-9.91-7.7-8.74-6.43-14.72-6.4-22.85.1-4,3.19-7.47,6.43-10.84,9.57-7.94,7.38-15.44,14.35-27.24,18.24-10.85,3.58-18.42,11.21-26.44,19.29-6.58,6.64-13.39,13.5-22.23,18-19.72,10-40.22.41-53.94-9.43-2.13-1.52-4.32-3.19-6.44-4.79-2.82-2.15-5.75-4.36-8.52-6.25a24.2,24.2,0,0,0-3.7-2.12c-1.77-.86-2.58-1.25-5.06-5.15-1.64-2.58-2.26-7-2.92-11.6-1-6.89-2-14-6.66-15.95-3.19-1.33-6.52-.79-9.62,1.55-8.09,6.11-13,22.64-11.82,32.79.7,6,3.77,10.7,6.75,15.21,4.16,6.31,8.1,12.27,5.15,21.45-2.89,9-10.36,16.94-17.57,24.65-10.88,11.62-22.12,23.63-18.48,39.56.8,3.48,1.71,6.5,2.51,9.17,3.25,10.77,4.88,16.18-9,26.5-4.49,3.32-10.11,6-16.06,8.79-8.44,4-17.16,8.1-22.39,14.31-4.46,5.28-6,11.09-7.46,16.7-1.85,7-3.58,13.61-10.48,19.6-7.21,6.26-15.19,11.82-22.9,17.21-2.87,2-5.73,4-8.57,6l-3.18,2.31c-13.45,9.76-20.2,14.66-38.15,10.22a97.52,97.52,0,0,1-14.86-5.41c-8.74-3.73-17-7.25-27.09-6.22l-.39,0-.06.38c-2.54,14.88,7.38,34.7,20.39,40.79a28.56,28.56,0,0,0,9.78,2.59c4.15.49,6.23.73,8.44,7.6,2,6.2-.25,13-2.23,19l-.33,1c-8.1,24.51-9.78,42.28-5.13,54.31,3,7.71,8.54,9.72,14.43,11.84,4.13,1.49,8.41,3,12,6.7,6.13,6.24,7.72,13.33,9.12,19.59,2.19,9.82,4.09,18.29,21.93,19.59ZM1309,1026.4c-23.51-5-29.25-18.55-31.21-40.34-2.39-26.5,13.13-31,32.79-36.62,4.12-1.19,8.39-2.42,12.74-3.91,12.15-4.17,24.23-9.36,26.76-22.77.8-4.24-.17-8.58-1.1-12.77-1.14-5.06-2.21-9.83-.47-14.52,3.11-8.34,13.11-13,21.94-17.16,2.59-1.21,5-2.36,7.15-3.53,13.05-7.2,27.64-16.12,35.75-30.94,6.5-11.88,7.1-25.14,7.68-38,.52-11.48,1-23.35,5.84-34.12a38.69,38.69,0,0,1,22.46-21.23,37.18,37.18,0,0,1,29.64,2.32c7,3.6,12.37,8.38,17.57,13,9.57,8.5,18.62,16.54,35.86,15.09,21.8-1.84,30.61-14.28,39.93-27.47,4.53-6.41,9.23-13.05,15.65-18.91,11.09-10.12,28.87-15.42,48.78-14.64,19.18.78,37.17,7.25,48.14,17.31a124.49,124.49,0,0,1,11.7,12.95c6.27,7.65,12.76,15.57,22.52,20.4,19.31,9.59,43.12,7.16,64.11,5q3-.32,5.92-.59l-.1-1-5.92.6c-20.86,2.13-44.51,4.54-63.56-4.91-9.55-4.75-15.69-12.22-22.18-20.14a124.05,124.05,0,0,0-11.8-13c-11.13-10.22-29.38-16.79-48.79-17.59-20.22-.82-38.23,4.62-49.52,14.92-6.5,5.93-11.22,12.61-15.79,19.07-9.18,13-17.85,25.24-39.17,27-16.82,1.41-25.7-6.48-35.1-14.84-5.25-4.66-10.67-9.48-17.79-13.15a38.19,38.19,0,0,0-30.44-2.36,39.69,39.69,0,0,0-23.06,21.77c-4.86,10.95-5.4,22.92-5.93,34.49-.57,12.71-1.17,25.86-7.55,37.53-8,14.57-22.42,23.4-35.34,30.53-2.1,1.16-4.52,2.29-7.09,3.5-9,4.22-19.22,9-22.47,17.74-1.84,5-.69,10.11.43,15.1.91,4.08,1.86,8.31,1.09,12.35-2.43,12.87-14.22,17.92-26.08,22-4.33,1.48-8.58,2.71-12.7,3.89-20.1,5.79-36,10.35-33.52,37.7,1.14,12.68,3.6,21.11,8,27.32,5,7.09,12.63,11.52,24,13.93Zm78,14.35c-65.39-9-79.22-41.38-81.9-51.1-6.47-23.44,14.45-35.06,33.14-40.68,23.69-7.12,23.65-14.53,23.55-32.43,0-3,0-6.39.07-10.1.42-15.91,10-19.05,21.11-22.69,5.09-1.67,10.36-3.4,15.36-6.45,13.77-8.42,25.61-25.63,28.77-41.86,1.29-6.59,1.28-13.65,1.28-20.48,0-15.41,0-30,13.32-40.34,18.85-14.64,35.77-3.31,52.23,7.7,14.52,9.72,33.18,12.38,58.73,8.38,17.22-2.69,23.47-11.06,30.72-20.74a110.46,110.46,0,0,1,11.33-13.48c15.54-15.29,34.5-6.37,52.58,4.08l.52-.89C1629.33,749,1610,740,1593.93,755.75a112,112,0,0,0-11.42,13.6c-7.41,9.89-13.25,17.71-30.06,20.34-25.27,3.95-43.7,1.35-58.09-8.28-16.67-11.16-33.9-22.7-53.34-7.6-13.75,10.67-13.73,26.17-13.72,41.15,0,6.79,0,13.8-1.26,20.28-3.11,16-14.75,32.91-28.29,41.18-4.9,3-10.11,4.7-15.15,6.36-11.47,3.75-21.37,7-21.82,23.63-.1,3.73-.08,7.13-.06,10.13.09,17.87.13,24.55-22.83,31.45-34.65,10.41-37.53,28.55-33.83,41.94,4.16,15.1,15.5,27.57,33.68,37s38.59,13.36,49.07,14.8ZM1358.4,1013l-.5-.89a9.59,9.59,0,0,1-8.85.19,17.43,17.43,0,0,1-9.27-11.77l-.07-.32-3.4-.81c-9.32-16.79-6.47-32,7.63-40.76,3.17-2,6.08-3.63,8.66-5.1,12.41-7.1,19.25-11,23.64-30.7,3.53-15.85,9.48-19.7,19.33-26.07,3-1.94,6.38-4.13,10.12-6.94,9.68-7.29,20.78-20.77,29.69-36.06,5.1-8.75,5.17-18.3,5.24-27.54.06-8.77.12-17.06,4.14-24.71,2.91-5.55,6.35-8.74,10.52-9.75,7.9-1.9,17,4.5,25,10.15,1.71,1.2,3.33,2.34,4.9,3.38,11.88,7.83,22.72,5.8,34.18,3.65,6.13-1.15,12.46-2.34,19.22-2a66.19,66.19,0,0,1,13.18,2.35c10.54,2.64,20.49,5.13,28.54-7.2a94.25,94.25,0,0,0,7.76-15.15c5.05-11.71,8.09-18.76,29.86-17.07,26.85,2.1,49.22,5.81,68.39,11.32l.28-1c-19.24-5.54-41.67-9.26-68.59-11.36-22.51-1.77-25.83,6-30.88,17.69a92.68,92.68,0,0,1-7.68,15c-7.65,11.71-16.81,9.42-27.43,6.77a66.81,66.81,0,0,0-13.39-2.39c-6.88-.27-13.27.91-19.45,2.07-11.25,2.11-21.89,4.11-33.42-3.5-1.56-1-3.18-2.16-4.88-3.36-8.21-5.78-17.51-12.32-25.87-10.3-4.47,1.08-8.14,4.43-11.19,10.26-4.13,7.87-4.2,16.67-4.26,25.18-.06,9.11-.13,18.52-5.09,27-8.85,15.18-19.85,28.55-29.42,35.75-3.72,2.8-7.09,5-10.06,6.9-9.74,6.3-16.16,10.45-19.79,26.72-4.28,19.25-10.59,22.85-23.14,30-2.58,1.47-5.51,3.14-8.69,5.12-14.68,9.1-17.62,24.92-7.88,42.32l.11.2,3.22.77a18.53,18.53,0,0,0,9.77,12.18,11.56,11.56,0,0,0,4.78,1.09A10.17,10.17,0,0,0,1358.4,1013Zm57.08,36c-2.58-6.68-5-13-6.16-19.21-3.24-17.47-15-25.32-31.74-31.72a61.69,61.69,0,0,0-10.33-2.55c-7.5-1.43-15.25-2.9-19.16-8.61-2.85-4.17-3.86-7.74-3.09-10.92,1.31-5.4,7.71-8.86,13.37-11.91l1.89-1c7-3.86,10-8.45,13.37-13.77a85.18,85.18,0,0,1,5.58-7.95,141.76,141.76,0,0,1,10.43-11.08,143.5,143.5,0,0,0,10.67-11.35,134,134,0,0,1,14.09-14.36c2.56-2.36,5.2-4.79,7.83-7.42,4.37-4.37,7.16-9.58,9.85-14.62,2.8-5.26,5.71-10.7,10.41-15.06,2.55-2.36,4.88-4.17,6.93-5.76,6.56-5.09,10.52-8.16,10.51-20.38v-.86c0-9.78-.06-26.16,5.81-29,2.16-1.05,5.09-.12,8.7,2.76,14.87,11.87,19.77,12.86,34.26,12,8.29-.51,15.3,1.72,22.71,4.06,5.79,1.84,11.78,3.73,18.4,4.18,21.61,1.46,28.89-6.77,38.27-20.47,3.92-5.73,18.93-15.65,27.07-13.61,3,.74,4.73,3.09,5.16,7l1-.12c-.48-4.35-2.48-7-5.93-7.86-8.66-2.17-24,8-28.17,14-9.17,13.41-16.22,21.44-37.35,20-6.5-.43-12.43-2.31-18.16-4.13-7.18-2.27-14.6-4.61-23.08-4.11-14.4.87-18.88-.06-33.56-11.78-3.94-3.14-7.23-4.12-9.79-2.88-6.44,3.11-6.41,19.24-6.39,29.91v.86c0,11.72-3.58,14.5-10.11,19.57-2.07,1.61-4.41,3.43-7,5.82-4.84,4.47-7.78,10-10.63,15.32-2.65,5-5.4,10.12-9.67,14.39-2.61,2.61-5.25,5-7.79,7.38a135.3,135.3,0,0,0-14.2,14.48,142.8,142.8,0,0,1-10.59,11.26,142.2,142.2,0,0,0-10.51,11.16,85.33,85.33,0,0,0-5.64,8c-3.34,5.2-6.22,9.7-13,13.43l-1.89,1c-5.84,3.15-12.46,6.72-13.88,12.57-.84,3.48.22,7.32,3.24,11.74,4.15,6.06,12.12,7.57,19.82,9a61.48,61.48,0,0,1,10.15,2.51c16.39,6.28,28,13.94,31.1,31,1.17,6.3,3.73,13,6.21,19.39,4.21,10.92,8.55,22.2,6.74,32.83l1,.17C1424.13,1071.49,1419.73,1060.07,1415.48,1049Zm15.47-37.26c1-8.47-16.87-19.24-25.47-24.41l-2.58-1.57c-6.79-4.27-10.14-7.8-10.56-11.13-.52-4.06,3.16-8,8.26-13.36,2.21-2.33,4.71-5,7.2-8,4.48-5.44,11.49-9.27,18.92-13.32,10.1-5.52,20.55-11.22,24.07-21.38,1.44-4.15.81-8.94.2-13.57-.66-5.07-1.35-10.31.76-14.49,3.7-7.33,7.63-13,15.81-18.82,7.9-5.58,8.26-13.16,8.58-19.85.24-5,.46-9.75,3.76-13.08,2.52-2.54,4.92-3.74,7.47-3.63,5.16.19,9.92,5.79,15,11.71,2.06,2.43,4.19,4.93,6.39,7.09l.46.47c3.44,3.38,7.75,7.61,13.11,7.37,3.69-.15,7.28-2.32,11-6.62s12.45-2.52,19.42-1c1.57.34,3.06.67,4.41.9a18.75,18.75,0,0,1,9.12,4.24,23.56,23.56,0,0,0,6.8,3.9c13.76,4.87,18.27-4.74,22.62-14.05,2-4.29,4.09-8.74,7.07-11.76,4.1-4.16,20-17.3,53-11.7,13.4,2.27,46.47,12.65,48.74,24.81l1-.19c-2.51-13.4-37.72-23.62-49.58-25.63-33.45-5.7-49.71,7.74-53.9,12-3.1,3.15-5.22,7.67-7.27,12.05-4.35,9.29-8.46,18.07-21.34,13.51a22.55,22.55,0,0,1-6.53-3.75,19.82,19.82,0,0,0-9.57-4.43c-1.32-.23-2.8-.55-4.37-.9-7.22-1.58-16.23-3.55-20.41,1.33-3.5,4.08-6.84,6.13-10.23,6.27h-.36c-4.8,0-8.78-3.93-12-7.09l-.48-.47c-2.16-2.13-4.28-4.62-6.32-7-5.19-6.1-10.1-11.87-15.71-12.08-2.81-.15-5.5,1.18-8.24,3.94-3.58,3.61-3.81,8.53-4.05,13.75-.33,6.77-.66,13.77-8.16,19.07-8.32,5.88-12.46,11.92-16.12,19.19-2.25,4.46-1.55,9.86-.86,15.08.59,4.52,1.2,9.18-.16,13.11-3.39,9.78-13.66,15.39-23.59,20.81-7.19,3.92-14.62,8-19.22,13.57-2.47,3-5,5.64-7.15,8-5.29,5.6-9.12,9.65-8.54,14.19.47,3.7,3.87,7.37,11,11.87.67.42,1.55,1,2.6,1.58,7.76,4.67,25.93,15.6,25,23.4-.34,2.76-3.13,5-8.32,6.57l.3,1C1427.52,1017.45,1430.56,1015,1431,1011.76Zm38.44,55.9c-5.72-8.82-6.36-20.77-7-32.32-.8-14.77-1.62-30-12.77-39.88-2.72-2.39-8.05-3.86-13.69-5.42-8.43-2.33-18-5-20.78-11.21-1.46-3.28-1-7.24,1.43-12.13,2.58-5.19,8.06-6.24,13.35-7.26,3-.58,6.17-1.18,8.72-2.56,7.44-4,8.15-7.85,9-12.71a37.53,37.53,0,0,1,2.2-8.06c2.85-6.84,6.42-8.05,10.95-9.58a27.77,27.77,0,0,0,10-5.29c5.17-4.45,5.77-9.79,6.41-15.45.41-3.59.83-7.31,2.52-10.84,4.05-8.47,16.41-18.2,25.7-17.5,5.07.37,8.59,3.63,10.49,9.7l.08.26.26.08c6.93,2.09,12.16-1.4,17.23-4.78,5.73-3.81,11.65-7.75,20.38-4.24,4.44,1.79,7.08,4.9,9.63,7.9,3.81,4.5,7.42,8.75,16.24,6.67,9.06-2.12,14.86-10,20.48-17.64,5.09-6.9,9.89-13.43,16.41-14,4.61-.43,9.89,2.14,16,7.89l.7-.75c-6.38-6-11.91-8.6-16.83-8.17-7,.65-11.92,7.36-17.15,14.46-5.5,7.47-11.2,15.2-19.88,17.24-8.22,1.93-11.47-1.9-15.23-6.33-2.51-3-5.35-6.31-10-8.19-9.23-3.72-15.38.38-21.34,4.34-5,3.34-9.78,6.5-16.1,4.72-2.57-7.9-7.56-9.88-11.31-10.15-9.83-.71-22.43,9.14-26.71,18.08-1.76,3.69-2.19,7.49-2.61,11.16-.62,5.46-1.2,10.61-6.06,14.79a26.21,26.21,0,0,1-9.7,5.09c-4.59,1.56-8.54,2.9-11.56,10.17a38,38,0,0,0-2.27,8.26c-.88,4.78-1.52,8.23-8.53,12a29.52,29.52,0,0,1-8.42,2.45c-5.54,1.07-11.28,2.17-14.08,7.81-2.57,5.18-3,9.43-1.44,13,3,6.69,12.79,9.39,21.44,11.78,5.53,1.52,10.74,3,13.28,5.2,10.83,9.54,11.64,24.6,12.42,39.17.63,11.68,1.28,23.76,7.15,32.82Zm16.48-53.23c-3.13-9.71-11.48-18.24-18.84-25.76-2.46-2.51-4.79-4.89-6.88-7.24-3.78-4.26-5.52-8-5.3-11.47.33-5.36,5.26-9.68,11-14.69,2.34-2,4.76-4.18,7.07-6.55,1-1,1.95-2,2.89-2.88,4.35-4.25,8.11-7.92,10-14.39a44.6,44.6,0,0,0,1.5-9c.45-4.93.85-9.19,4.86-14.37,3.23-4.2,6-6.2,8.6-6.31,3.77-.22,7.29,3.68,11.74,8.53,2.24,2.45,4.78,5.22,7.73,7.89,5.15,4.65,16,2.06,20.94-3.26a10.7,10.7,0,0,0,3-7.88c.12-2.92.2-5,6.68-7,6.15-1.89,11.54,1,15,3.8,7.24,5.85,12.38,16.48,11.7,24.21l0,.45.44.1c14.1,3,29.14-8,43.49-31.73,6.71-11.1,22.47-23.07,46.61-23.36l0-1c-24.55.3-40.62,12.52-47.47,23.86-9.75,16.14-24.92,34.59-42,31.34.47-8-4.77-18.71-12.1-24.64-3.64-2.93-9.35-6-15.92-4-7.17,2.22-7.28,4.89-7.4,8a9.76,9.76,0,0,1-2.75,7.22c-4.6,4.94-14.88,7.38-19.5,3.2-2.91-2.64-5.44-5.39-7.66-7.82-4.53-4.94-8.14-8.87-12.27-8.87h-.27c-3,.13-5.94,2.26-9.38,6.71-4.19,5.42-4.61,10-5.06,14.9a44,44,0,0,1-1.46,8.78c-1.84,6.22-5.51,9.81-9.75,14-1,.92-1.92,1.88-2.91,2.89-2.29,2.35-4.69,4.46-7,6.5-5.87,5.16-11,9.61-11.31,15.39-.23,3.75,1.59,7.74,5.57,12.22,2.1,2.37,4.43,4.76,6.9,7.28,7.29,7.44,15.54,15.88,18.6,25.35Zm24.24,45.8-.2-1c-3.38.68-7.91.19-11.55-.21l-.18,0c-1.24-6,2.08-12.22,5.58-18.78s7.28-13.61,6.66-21.14c-.48-5.82-2.5-10.09-4.84-15-.73-1.55-1.49-3.16-2.25-4.9-4.29-9.93-4.06-20.43.81-36.23.56-1.84-1.19-3.62-2.9-5.33-1.37-1.38-2.79-2.81-2.72-4,.33-6.38,5.39-10.91,9.75-14.15,2.28-1.69,6-2.64,9.52-3.57a40.61,40.61,0,0,0,7.85-2.58,43.89,43.89,0,0,0,5.2-3.34c3.23-2.28,6.58-4.64,9.68-5,6.58-.71,7.2.64,8.32,3.07a12.89,12.89,0,0,0,4.09,5.4c7.43,5.77,23.73,12.11,34.69,12.1h.39c5.4-.07,10.94-1.72,16.29-3.3,6.74-2,13.72-4.08,20.55-3.06l.15-1c-7-1.07-14.14,1-21,3.08-5.28,1.57-10.74,3.19-16,3.27h-.37c-10.77,0-26.77-6.22-34.06-11.89a11.94,11.94,0,0,1-3.79-5c-1.3-2.84-2.38-4.41-9.36-3.66-3.37.36-6.82,2.8-10.16,5.15a43.92,43.92,0,0,1-5.07,3.27,41.26,41.26,0,0,1-7.64,2.5c-3.66.95-7.44,1.93-9.88,3.74-4.55,3.37-9.81,8.11-10.17,14.92-.09,1.67,1.5,3.26,3,4.8s3,3.05,2.63,4.31c-4.94,16-5.16,26.76-.76,36.94.76,1.76,1.52,3.37,2.26,4.93,2.3,4.85,4.28,9,4.74,14.67.6,7.23-3,14-6.54,20.58-3.66,6.86-7.12,13.34-5.59,19.85l.08.35.91.1a71.3,71.3,0,0,0,7.66.55A21.55,21.55,0,0,0,1510.11,1060.23Zm6.68-2.3c5.8-13,11.79-26.43,13.12-39.68,1-9.62-3-16.55-6.92-23.24-3-5.24-6.17-10.65-6.94-17.36-.92-7.92,3.62-16.5,11.84-22.39s17.55-7.3,24.66-3.93c3.26,1.55,5.67,4,8,6.37,3,3,6.09,6.16,10.94,7.43,7.87,2,17.4-1.11,25-3.64l1.86-.62c.94-.3,2-.65,3.08-1,12.16-4.09,32.51-10.92,42.2-3.84,3.64,2.66,5.44,7.18,5.35,13.42l1,0c.1-6.6-1.84-11.4-5.77-14.27-10.11-7.39-30.78-.45-43.13,3.7l-3.07,1-1.86.61c-7.53,2.5-16.89,5.6-24.47,3.63-4.58-1.2-7.44-4.1-10.47-7.17-2.4-2.43-4.88-4.94-8.3-6.57-7.45-3.53-17.29-2-25.69,4s-13.23,15.05-12.27,23.34c.8,6.92,4,12.43,7.07,17.75,4,6.86,7.72,13.34,6.79,22.63-1.31,13.08-7.27,26.44-13,39.36-3.93,8.8-8,17.91-10.45,26.71l1,.28C1508.84,1075.76,1512.88,1066.7,1516.79,1057.93ZM2.71,975.56l-.19-5.42c-1-29-2.14-58.94,18.81-80.77,9.68-10.08,22-18,34-25.64,8.24-5.28,16.76-10.73,24.32-16.85C103.47,827.61,125,814.94,147.31,807c7.74-2.75,16.17-3.45,24.32-4.12,11.8-1,24-2,34.13-9.29,15.56-11.25,31.32-33.71,36.66-52.25,11.69-40.6-5.78-91.22-17.33-124.72-.63-1.83-1.46-4-2.37-6.38-4.9-12.88-13.1-34.44-5.71-45,3.19-4.54,11.69-3.52,19.91-2.53,7.37.88,15,1.8,19.48-1.21,7.67-5.14,11.41-14,15-22.63a110.08,110.08,0,0,1,5.17-11.14c7-12.51,13.25-24.9,12.88-39-.18-6.67-2.28-12.87-4.32-18.87-1.7-5-3.45-10.13-4-15.44-3.23-30,31.59-54.85,55.79-64.2,11.63-4.5,23.46-7.7,34.9-10.79,15.3-4.14,31.11-8.42,46.58-15.83,21.9-10.49,31-3.86,43.67,5.32,6,4.39,12.89,9.36,22.17,13.11,22.09,8.93,39.07-8.62,55.49-25.59,7.84-8.11,15.25-15.76,22.88-20.16,11.71-6.74,21.37-8.62,29.55-5.73,9.8,3.46,17.54,13.7,25.07,33.18,16.72,43.25,53.54,72,96.08,74.95,33.36,2.32,61.44-14.68,88.61-31.14,2.35-1.42,4.69-2.84,7-4.24,2.11-1.26,4.31-2.56,6.58-3.89,19.76-11.57,44.35-26,50.55-48.88,3.27-12.06-.79-23.91-4.71-35.36-4.28-12.51-8.32-24.32-3.48-36.21,7.73-19,36.12-29.86,56.85-37.79,3.12-1.2,6.07-2.33,8.74-3.41,17.76-7.16,43.94-16,66.18-10.35,9.09,2.31,16.5,8,23.66,13.55,8.71,6.72,17.72,13.66,29.92,14.82,10.71,1,21.61-1.64,32.15-4.21,9-2.19,18.34-4.47,27.58-4.47h.67c25.52,0,36.59-9.74,53.29-24.42,1.6-1.41,3.26-2.87,5-4.36,10.75-9.33,25.61-14.61,40-19.73,4.23-1.5,8.22-2.92,12.1-4.43,18.6-7.27,29.94-1.63,44.31,5.52,4.66,2.32,9.47,4.71,15,6.9,7.67,3,15.51,3.81,23.09,4.55,10.66,1,20.73,2,30.09,8.91,4.32,3.18,10.81,10.38,18.31,18.72,18.83,20.9,42.28,46.91,59.13,42.9,6.76-1.61,11.77-8,14.9-19.11,7.67-1.5,15.45,2.93,23,7.23,11.46,6.53,23.31,13.3,34.8-.77a64.9,64.9,0,0,0,5.43-7.94c2.8-4.63,5-8.29,12.13-12.63a210.34,210.34,0,0,1,19.49-10.09c3.74-1.78,7.62-3.62,11.39-5.57,6.57-3.4,12.36-7,18-10.49,16.28-10.14,30.34-18.9,53.2-14.72,15.8,2.9,28.38,1,39.59-5.87,10.16-6.27,18.62-16.13,29-30l-1.65-1.23c-18.76,25.13-33.53,41.15-66.56,35.1-23.66-4.34-38,4.62-54.65,15-5.57,3.47-11.32,7.06-17.82,10.42-3.74,1.93-7.6,3.76-11.33,5.53a212.28,212.28,0,0,0-19.68,10.2c-7.55,4.6-10,8.64-12.82,13.32a62.21,62.21,0,0,1-5.26,7.7c-10.39,12.72-21,6.68-32.19.28-8.06-4.6-16.4-9.36-25-7.31l-.59.14-.16.59c-2.91,10.66-7.47,16.81-13.57,18.25-15.67,3.74-39.63-22.86-57.12-42.28-7.59-8.42-14.14-15.69-18.63-19-9.81-7.22-20.63-8.28-31.1-9.3-7.44-.73-15.14-1.48-22.53-4.42-5.41-2.15-10.19-4.53-14.81-6.83-14.23-7.08-26.53-13.19-46-5.59-3.86,1.5-7.83,2.91-12,4.41-14.55,5.18-29.61,10.53-40.64,20.11q-2.6,2.25-5,4.36c-16.36,14.39-27.19,23.91-51.95,23.91H1103c-9.48,0-18.93,2.3-28.06,4.53-10.85,2.65-21.1,5.14-31.48,4.16-11.6-1.1-20-7.56-28.86-14.4-7.32-5.66-14.9-11.5-24.4-13.92-22.82-5.83-49.43,3.17-67.46,10.44-2.66,1.08-5.6,2.2-8.71,3.39-21.07,8.07-49.94,19.12-58,38.94-5.13,12.6-.77,25.33,3.44,37.64,3.82,11.17,7.77,22.71,4.67,34.16-6,22.1-30.17,36.27-49.61,47.65-2.27,1.34-4.48,2.63-6.6,3.9q-3.51,2.1-7,4.25c-26.9,16.29-54.7,33.15-87.4,30.84-41.74-2.92-77.88-31.14-94.32-73.64-5.23-13.53-12.94-29.66-26.3-34.37-8.78-3.1-19-1.18-31.25,5.88-7.89,4.55-15.39,12.3-23.33,20.51-16,16.48-32.44,33.52-53.25,25.12-9.05-3.66-15.79-8.55-21.74-12.87-12.71-9.24-22.76-16.53-45.76-5.51-15.3,7.33-31,11.59-46.23,15.7-11.49,3.11-23.37,6.32-35.1,10.85-24.79,9.58-60.45,35.15-57.09,66.34.6,5.53,2.39,10.8,4.12,15.89,2,5.85,4.05,11.9,4.22,18.26.36,13.56-5.77,25.68-12.62,37.93a111.82,111.82,0,0,0-5.28,11.35c-3.49,8.32-7.11,16.91-14.27,21.71-3.86,2.59-11.09,1.72-18.09.88-8.82-1.06-17.94-2.16-21.84,3.39-8,11.4.1,32.74,5.47,46.86.91,2.37,1.72,4.51,2.35,6.32,11.47,33.25,28.81,83.51,17.3,123.48-5.23,18.15-20.66,40.15-35.9,51.16-9.66,7-21,7.92-33.09,8.91-8.28.68-16.84,1.38-24.84,4.22-22.56,8-44.25,20.8-68.27,40.22-7.47,6-15.94,11.46-24.14,16.71-12.05,7.71-24.51,15.69-34.36,26C-1.7,910.41-.6,940.81.47,970.22l.19,5.41Zm474,221.36q-1.6-5.16-3.19-10.36c-7.65-25-15.55-50.76-27.61-74.2-20.47-39.82-47.85-44-85.74-49.76-3.9-.59-7.9-1.2-12-1.87-58.19-9.45-89.32-43.33-98.31-69.46-3.79-11-3.59-20.14.62-27.8,9-16.28,34.58-22.4,55.18-27.32l2.11-.5c54.68-13.1,86.09-35.13,105-73.65,40.89-83.12,29.69-175.39,13.09-238.16l-.8-3c-8.28-31.16-19.61-73.83,6.2-99.24C442,511,474.37,490,543.44,522.29c11.81,5.52,23.39,12.51,34.58,19.27,22.46,13.56,45.68,27.59,72.46,31,29.42,3.71,60.37-.75,90.3-5.06,14.71-2.11,29.93-4.31,44.47-5.42,5.71-.44,11.68-.77,17.46-1.09,36.25-2,73.73-4.07,99.09-32.21,16.26-18.05,26.24-40.48,35.9-62.17,8.73-19.62,17.76-39.91,31.39-56.77,20.67-25.59,40.52-18.1,65.65-8.63,4.18,1.58,8.51,3.21,13,4.72,36.93,12.55,69.41.81,103.79-11.63,4.42-1.6,8.86-3.21,13.34-4.77,23.84-8.32,41.53-8.66,54.06-1.05,11.78,7.15,19,21.24,22.19,43.07,7.29,50.53,2.52,104.28-2.1,156.26-.91,10.23-1.85,20.82-2.67,31.05l-.41,5.31c-3.1,39.88-6.94,89.52-46.84,110.47-20.53,10.79-43.9,14.18-66.5,17.46-23.15,3.36-47.08,6.83-68.26,18.21-41.57,22.34-51.76,70-60.74,112-1.45,6.8-2.82,13.22-4.32,19.58-12.12,51.52-32.86,83.14-71.43,108.77a4.53,4.53,0,0,1,.11-1.93l-2-.52a6.52,6.52,0,0,0,.36,4.48l.5,1.09,1-.66c39.79-26.08,61.06-58.17,73.44-110.76,1.5-6.38,2.87-12.81,4.33-19.62,9.32-43.62,19-88.73,59.7-110.62,20.86-11.2,44.61-14.65,67.58-18,22.77-3.3,46.32-6.72,67.17-17.67,40.89-21.48,44.79-71.74,47.93-112.13l.41-5.3c.81-10.23,1.75-20.81,2.66-31,4.63-52.1,9.42-106,2.09-156.73-3.25-22.48-10.82-37.05-23.16-44.54-13.09-7.95-31.33-7.66-55.79.87-4.49,1.57-8.94,3.18-13.36,4.78-34,12.31-66.19,23.94-102.44,11.62-4.43-1.5-8.74-3.13-12.91-4.7-24.88-9.38-46.36-17.48-68,9.26-13.8,17.07-22.88,37.48-31.67,57.22-9.59,21.55-19.51,43.83-35.55,61.64-24.79,27.51-61.84,29.56-97.67,31.54-5.79.31-11.77.65-17.5,1.08-14.61,1.12-29.87,3.32-44.61,5.44-29.8,4.3-60.6,8.74-89.75,5-26.35-3.32-49.38-17.23-71.66-30.68C567.84,533,556.22,526,544.31,520.43c-14.23-6.66-35.87-15-58.11-17.06-23.91-2.18-42.86,3.45-56.35,16.73-26.66,26.25-15.15,69.58-6.75,101.22l.81,3c16.5,62.44,27.66,154.19-13,236.73C392.31,899,361.3,920.71,307.29,933.65l-2.12.51c-21,5-47.11,11.24-56.5,28.32-4.44,8.08-4.69,18-.75,29.45,14.65,42.64,61.21,64.54,99.91,70.83,4.12.67,8.13,1.28,12,1.87,37.29,5.68,64.24,9.78,84.23,48.67,12,23.28,19.85,49,27.47,73.86q1.59,5.21,3.19,10.37Zm348.16,2.79-.56-.86c-10.33,6.8-18.59,7.61-24.56,2.4-12-10.5-10.92-41.83-3.81-56.71,6.46-13.52,9.41-19.7,5.28-35s-3-26.38,4.25-42.35c11.32-24.88,27.93-34.12,48.95-45.81,3.46-1.92,7-3.91,10.72-6,3-1.74,6.35-3.55,9.89-5.47,18.52-10.07,41.58-22.59,48-41.15,2.47-7.14-.62-15.66-3.62-23.9-3.68-10.16-7.17-19.76.64-25.06,3.6-2.44,8.12-2.8,12.91-3.17,5.27-.42,10.73-.85,15.2-4.21,5.59-4.18,9-11,12.35-17.52,1.32-2.62,2.58-5.1,4-7.37,12.09-20.09,15.27-30.15,11.63-53.88-2.79-18.16,4.06-28.17,12-39.77a149.39,149.39,0,0,0,9.79-15.72c11.85-22.74,22-29.71,46.37-39.11,20.54-7.92,39.43-10.3,63.25-11.56l.53,0,0-.53c-1.3-16.46,11.64-18.32,24.16-20.13,3.35-.48,6.51-.93,9.41-1.65a114.2,114.2,0,0,0,15.4-5.52c7.92-3.25,16.11-6.62,24.38-7.07l.36,0,.1-.35c1.48-5.29,3.59-11.51,5.81-18.09,8.93-26.38,20.05-59.22,8.52-79.2-1.49-2.58-2.9-4.83-4.27-7-5.26-8.38-9.07-14.44-8.91-26.9.14-12.07,1.06-29.55,7.36-41.91,2.68-5.27,6.7-9.77,10.59-14.12,4.82-5.39,9.79-11,12.38-18.11,3.62-10,2.12-20.76.66-31.17-.44-3.1-.88-6.31-1.18-9.39-.14-1.55-.19-3.56-.24-5.89-.22-10.18-.55-25.56-10.65-26-5.63-.26-11.06,4.82-16.84,10.17-5.55,5.14-11.29,10.45-17.4,11.26-7.12.95-14.14-1.21-20.93-3.31-7.59-2.34-15.44-4.75-23.65-3-13.51,2.92-21.38,14.4-28.25,26-10.29,1.55-21.26,2.92-32.26,1.41-9.72-1.33-19.32-5.86-28.6-10.25-12-5.64-24.3-11.49-37.18-10.63-23.88,1.58-30.22,27.42-35.32,48.19-.7,2.86-1.36,5.56-2,8.08-6.82,25.17-16.65,40.2-37.55,57.43-7,5.8-13.28,13.13-19.33,20.23-7.79,9.13-15.85,18.58-25.6,24.76-16.58,10.51-34.11,4.86-51.06-.61-4.11-1.33-8.37-2.7-12.52-3.81-18.13-4.84-33.55-1-49.88,3.11-5.13,1.28-10.42,2.61-15.93,3.69-9.83,2-20.44,1.86-30.71,1.76-13.55-.11-27.59-.24-40.09,4.31-6.19,2.25-12.17,7-18.5,12-10.42,8.25-21.2,16.78-33.07,13.56-12.88-3.5-18.73-16.82-24.39-29.71-4.21-9.59-8.56-19.5-15.79-25.28-10.59-8.46-22.18-6.37-33.39-4.35-8.57,1.55-17.43,3.15-25.84.05-9.2-3.39-14.2-11.2-19.5-19.46-5.68-8.88-11.55-18-23.06-21.18-11.84-3.21-25.76.41-36.33,9.47-9.63,8.25-14.44,19.26-13.21,30.22,1.46,13,8.74,24.14,15.78,34.9s14.49,22.15,16.16,35.61c1.8,14.5.43,29.37-.89,43.76-1.26,13.64-2.56,27.74-1.2,41.65,2.89,29.54,4.14,50.8-4.46,76.25-7.16,21.23-17.11,48.58-30.53,71.83-24.35,42.22-66.77,63.78-107.8,84.64l-1.44.73c-10.63,5.4-28.43,14.45-31.37,26.78-1.16,4.86.09,9.83,3.72,14.79,11.3,15.44,37.74,20.56,57,24.31,2.81.54,5.48,1.06,7.94,1.58l.21-1c-2.47-.51-5.14-1-7.95-1.58-19.14-3.71-45.35-8.8-56.41-23.91-3.44-4.7-4.64-9.39-3.55-13.94,2.83-11.87,20.36-20.78,30.84-26.11l1.44-.73c41.16-20.92,83.72-42.56,108.22-85,13.47-23.34,23.43-50.75,30.62-72,8.65-25.65,7.4-47,4.51-76.68-1.35-13.81-.06-27.86,1.19-41.45,1.33-14.45,2.7-29.38.89-44-1.7-13.69-9.13-25-16.32-36-7.3-11.15-14.19-21.68-15.62-34.46-1.19-10.61,3.49-21.3,12.85-29.32,10.32-8.84,23.89-12.38,35.4-9.26,11.13,3,16.89,12,22.47,20.74,5.15,8.05,10.48,16.37,20,19.87,8.68,3.2,17.68,1.57,26.38,0,11.49-2.07,22.34-4,32.57,4.14,7,5.62,11.33,15.42,15.49,24.89,5.76,13.11,11.71,26.66,25.06,30.29,12.37,3.36,23.36-5.34,34-13.75,6.26-5,12.18-9.64,18.21-11.83,12.33-4.49,26.26-4.37,39.73-4.25,10.32.09,21,.18,30.92-1.78,5.53-1.09,10.84-2.42,16-3.71,16.19-4,31.48-7.88,49.37-3.11,4.12,1.11,8.36,2.47,12.46,3.8,17.18,5.54,34.94,11.27,51.93.5,9.88-6.26,18-15.77,25.83-25,6-7.06,12.25-14.36,19.21-20.1,20.82-17.16,31.08-32.87,37.88-57.95.68-2.53,1.35-5.24,2.05-8.11,5-20.44,11.26-45.88,34.39-47.41,12.58-.83,24.83,4.95,36.67,10.54,9.35,4.42,19,9,28.9,10.34,11.22,1.54,22.35.13,32.79-1.45l.24,0,.13-.21c6.79-11.44,14.52-22.84,27.71-25.69,7.94-1.72,15.66.66,23.13,3,6.89,2.12,14,4.31,21.37,3.34,6.43-.86,12.29-6.28,18-11.53,5.5-5.09,10.7-9.9,15.77-9.9h.32c9.14.38,9.47,15.18,9.68,25,0,2.35.09,4.38.24,6,.29,3.1.75,6.32,1.18,9.43,1.44,10.29,2.93,20.93-.6,30.69-2.53,6.95-7.43,12.45-12.18,17.76-3.93,4.4-8,9-10.74,14.35-6.4,12.54-7.33,30.18-7.48,42.35-.16,12.77,3.71,18.93,9.07,27.47,1.37,2.16,2.77,4.41,4.25,7,11.3,19.58.27,52.18-8.6,78.37-2.18,6.44-4.25,12.54-5.73,17.78-8.3.53-16.45,3.88-24.34,7.12a114.09,114.09,0,0,1-15.26,5.47c-2.85.71-6,1.16-9.3,1.64-12.26,1.76-26.14,3.76-25.08,20.7-23.68,1.28-42.54,3.69-63,11.6-24.26,9.35-35,16.74-46.91,39.6a150.43,150.43,0,0,1-9.72,15.61c-8.06,11.78-15,21.94-12.17,40.51,3.63,23.6.65,33-11.49,53.19-1.39,2.31-2.65,4.8-4,7.44-3.27,6.45-6.65,13.12-12,17.16-4.24,3.18-9.55,3.6-14.68,4-4.92.39-9.58.76-13.4,3.35-8.46,5.75-4.85,15.71-1,26.26,2.93,8.07,6,16.42,3.61,23.21-6.3,18.19-29.16,30.61-47.53,40.58-3.55,1.93-6.89,3.75-9.92,5.49-3.67,2.13-7.25,4.12-10.7,6-21.19,11.78-37.92,21.08-49.38,46.27-7.39,16.22-8.51,27.49-4.31,43,4,14.9,1.32,20.56-5.21,34.25-7.25,15.16-8.31,47.14,4.05,57.92a14.36,14.36,0,0,0,9.71,3.58C813,1205.6,818.27,1204.05,824.87,1199.71Zm-435.79-167a42.33,42.33,0,0,1-5.52-7.92,56.73,56.73,0,0,1-2.25-5.62c-2.2-6.1-4.1-11.36-14.12-13.37-6-1.2-13-.87-19.83-.55-13.63.65-26.52,1.27-30.86-9.65-2.28-5.71-2.43-10.08-.48-13.37,4-6.7,16.61-8.24,30-9.87,13.71-1.66,29.25-3.55,38.78-11.33,6.31-5.14,10.95-12.2,15.43-19a114.71,114.71,0,0,1,10.2-14c5.67-6.27,12.31-11.73,18.73-17,5.29-4.35,10.77-8.86,15.69-13.81,25.11-25.23,37.71-54.36,35.47-82-.26-3.25-.71-6.52-1.15-9.69-1.31-9.53-2.55-18.54.68-27.7,2.78-7.91,8.15-13.48,13.84-19.39a92.64,92.64,0,0,0,9.69-11.21c11.11-16.05,3.67-28.27-4.2-41.21-4.81-7.89-9.78-16.06-10.6-25.46-.86-9.81,1.85-18.65,4.47-27.2,3.79-12.38,7.71-25.18.34-40.54-4.15-8.64-12.44-14-20.46-19.17-9.86-6.37-19.17-12.38-20.72-23.9-1.69-12.61,6.82-25.85,15.28-28.84,12.1-4.27,18.06,5.51,23.13,15.89,1.33,2.73,2.51,5.61,3.64,8.39,3.77,9.19,7.66,18.69,17.73,23.71,8.64,4.31,18.4,3.72,27.83,3.16a109.76,109.76,0,0,1,13.66-.26c16.37,1.12,19.35,14.29,22.5,28.24,2.33,10.28,4.73,20.92,12.66,27.34,2.25,1.82,5.35,1.38,8.35.95a17.42,17.42,0,0,1,5.58-.23,101.42,101.42,0,0,1,12.86,3.75c5.81,2,11.82,4,18,4.5,17.36,1.38,30.74-6.21,44.9-14.24,4.15-2.35,8.44-4.78,12.82-7,19.32-9.61,39.36-12.19,67-8.63,45.24,5.83,94.55-.85,150.74-20.41,29-10.1,46.3-27.78,56.09-57.33,1.72-5.19,3.11-11.53,4.57-18.24,4.17-19.05,8.89-40.64,23.46-49.23,11.16-6.58,24.34-2,37.09,2.37,5.61,1.93,10.91,3.76,15.94,4.62,20.34,3.47,40.23-2.18,59.46-7.66,5.85-1.66,11.9-3.38,17.83-4.8l1.33-.32c11.77-2.84,36.26-8.74,47.91-.65a15.3,15.3,0,0,1,6.41,11.3c1.64,13.7-8.6,28.63-18.51,43.07-5.85,8.53-11.38,16.58-14.14,24-6.77,18.12-1,37.47,4.5,56.19,7.63,25.82,14.85,50.21-12.37,67.61-25.44,16.27-55.1,23.75-83.78,31-17,4.29-34.58,8.73-51,14.94-30.68,11.59-47.3,30.57-50.82,58-.9,7-.59,14.54-.26,22.56.68,16.63,1.39,33.84-9.21,45.94-6.3,7.19-15.16,11.21-23.73,15.09-10.32,4.68-21,9.51-27.44,19.94-8.19,13.26-6.7,28.6-5.26,43.44.93,9.57,1.89,19.46.2,28.61-4.31,23.36-25,29.77-45,36-3.29,1-6.7,2.08-9.94,3.18-26.87,9.18-41.23,23.07-51.19,49.54l1,.36c9.84-26.14,24-39.86,50.56-48.93,3.23-1.1,6.63-2.15,9.91-3.17,20.29-6.28,41.27-12.78,45.69-36.76,1.72-9.28.75-19.25-.18-28.89-1.43-14.67-2.9-29.84,5.1-42.8,6.28-10.16,16.81-14.93,27-19.55,8.66-3.92,17.63-8,24.07-15.34,10.87-12.41,10.16-29.82,9.47-46.66-.33-8-.64-15.5.24-22.39,3.47-27.06,19.88-45.77,50.17-57.21,16.4-6.19,34-10.62,50.92-14.9,28.76-7.26,58.5-14.77,84.09-31.13,27.86-17.81,20.54-42.56,12.79-68.76-5.49-18.55-11.17-37.74-4.52-55.54,2.72-7.26,8.21-15.27,14-23.74,10-14.6,20.38-29.69,18.69-43.77-.63-5.25-2.93-9.3-6.85-12-12-8.36-36.82-2.38-48.73.49l-1.33.32c-5.95,1.43-12,3.15-17.87,4.82-19.12,5.44-38.89,11.06-59,7.63-4.94-.84-10.21-2.66-15.78-4.58-13-4.48-26.37-9.1-37.94-2.29-15,8.83-19.73,30.65-23.94,49.9-1.46,6.69-2.84,13-4.54,18.14-9.68,29.22-26.78,46.7-55.45,56.68-56,19.51-105.2,26.17-150.28,20.36-27.87-3.58-48.09-1-67.6,8.73-4.41,2.19-8.71,4.63-12.87,7-14,8-27.29,15.48-44.32,14.11-6-.48-12-2.5-17.74-4.45a103.21,103.21,0,0,0-13-3.79,18.35,18.35,0,0,0-5.93.22c-2.91.42-5.65.82-7.55-.73-7.66-6.2-10-16.65-12.31-26.77-3.24-14.33-6.29-27.87-23.43-29a108.08,108.08,0,0,0-13.8.25c-9.3.56-18.91,1.14-27.3-3-9.73-4.84-13.37-13.75-17.24-23.18-1.14-2.8-2.32-5.69-3.67-8.45-5.27-10.8-11.5-21-24.39-16.4-10.74,3.79-17.4,19.2-16,29.94,1.61,12,11.12,18.12,21.18,24.62,7.9,5.1,16.07,10.38,20.09,18.75,7.2,15,3.51,27-.39,39.8-2.65,8.64-5.39,17.58-4.51,27.59.84,9.64,5.87,17.91,10.74,25.91,7.7,12.64,15,24.58,4.24,40.08a90.35,90.35,0,0,1-9.59,11.09c-5.52,5.72-11.22,11.64-14.07,19.75-3.31,9.41-2,19-.72,28.19.43,3.15.88,6.41,1.14,9.63,2.21,27.35-10.28,56.19-35.17,81.21-4.89,4.91-10.35,9.4-15.63,13.74-6.44,5.3-13.11,10.79-18.83,17.11a114.85,114.85,0,0,0-10.3,14.09c-4.44,6.76-9,13.75-15.22,18.8-9.3,7.58-24.68,9.45-38.25,11.11-14.23,1.73-26.52,3.22-30.75,10.36-2.13,3.58-2,8.25.4,14.27,4.61,11.6,18.47,10.94,31.87,10.3,6.75-.32,13.73-.65,19.58.52,9.45,1.9,11.17,6.67,13.35,12.72.66,1.83,1.35,3.73,2.29,5.71a43.93,43.93,0,0,0,5.65,8.13c4.9,6,9.52,11.7,4.91,20l.9.49C399,1044.92,394,1038.7,389.08,1032.68ZM712.24,1184.9q-.27-15.33-.54-30.66-.32-17.88-.62-35.76c-.12-6.87-.38-13.94-.66-21.43-1-27.33-2.16-58.3,4.35-84.62,7.44-30.11,23.78-49.56,50-59.46,4.92-1.86,10-3.42,15.46-5.07,15.88-4.85,32.31-9.86,43-22.66,8.62-10.26,10.83-23.08,13-35.47A151.2,151.2,0,0,1,840,872.13c6.74-22.46,25.6-32.84,43.83-42.89,17.1-9.41,34.78-19.15,43-38.76,5.22-12.47,5.3-25.78,5.38-38.65.06-9.14.12-18.58,2-27.64,5.53-26.35,29-36.18,50.66-43.32,5.4-1.78,11.8-3.65,18.57-5.64,34.51-10.1,81.77-23.93,94.69-53.16,5.32-12.05,4.25-25.87-3.18-41.07-5-10.34-15.8-23.8-27.38-34.27-14.26-12.88-28.6-20.39-40.4-21.15-10.84-.72-19.66,4-26.23,14-8.2,12.44-13.53,26.2-18.68,39.5-10.47,27.06-20.36,52.61-52.57,64.91-14.1,5.39-29.44,7.14-44.27,8.83-5.87.67-11.93,1.36-17.82,2.27-11.5,1.78-22.87,4.67-33.88,7.47-7.26,1.84-14.77,3.75-22.25,5.32-19.05,4-38.5,2.37-57.31.79-19.35-1.63-39.35-3.31-58.82,1.19-12.9,3-24.38,7.57-35.48,12-18.69,7.48-36.34,14.53-59.34,13.77-18,2.72-23.79-6.79-31.1-18.83-1.88-3.08-3.81-6.27-6.08-9.44a94.85,94.85,0,0,1-7.23-12.51c-3.26-6.41-6.34-12.46-12.3-18.24-3.91-3.78-7.36-5-10.25-3.51-8.57,4.32-8.94,30.75-7.64,40.53a162.07,162.07,0,0,0,4.32,19.76c2.33,8.82,4.73,17.94,4.84,27.27.12,11.42-4.4,16.87-10.67,24.42-1.92,2.31-3.91,4.71-6,7.54-7.17,9.73-11.45,24.72-12.74,44.57-.43,6.66,1.35,12.79,3.07,18.73,2.17,7.45,4.21,14.48,2.19,22.43-4.08,16-13.26,33.44-20.79,46.85-7.09,12.63-18.26,17.69-29.07,22.58-12.3,5.57-25,11.33-31.53,28.23a100.71,100.71,0,0,0-3.12,10.05c-2.45,9.14-4.22,15.75-16,19.07-2.28.64-4.17,1.05-5.83,1.41-4.21.91-7.24,1.56-12.32,5-1.13.77-2.32,1.5-3.46,2.21-3.5,2.16-7.11,4.39-9.64,8-2.4,3.46-3.25,6.58-2.62,9.54,1.25,5.88,8.11,10,16.05,14.82,11.69,7.07,24.94,15.08,23.07,30.93l1,.12c1.94-16.51-11.61-24.7-23.56-31.92-7.74-4.68-14.42-8.72-15.58-14.17-.57-2.66.24-5.52,2.47-8.73,2.4-3.46,5.76-5.54,9.32-7.74,1.16-.71,2.36-1.45,3.5-2.23,4.92-3.36,7.87-4,12-4.88,1.68-.36,3.59-.77,5.9-1.43,12.3-3.47,14.23-10.67,16.68-19.79a93.71,93.71,0,0,1,3.08-9.94c6.36-16.5,18.32-21.92,31-27.66,11-5,22.29-10.09,29.55-23,7.56-13.47,16.77-31,20.88-47.1,2.1-8.21-.08-15.72-2.19-23-1.7-5.85-3.46-11.89-3-18.37,1.28-19.65,5.5-34.47,12.55-44,2.07-2.81,4-5.19,6-7.5,6.16-7.42,11-13.29,10.9-25.08-.1-9.45-2.52-18.64-4.86-27.53a159.17,159.17,0,0,1-4.3-19.62c-1.52-11.43-.39-35.72,7.08-39.48,2.46-1.24,5.51-.12,9.07,3.33,5.85,5.66,8.89,11.64,12.11,18A94.45,94.45,0,0,0,562.51,668c2.24,3.13,4.16,6.3,6,9.37,7.22,11.88,13.46,22.14,32,19.32,23.11.8,40.87-6.32,59.67-13.84,11.06-4.42,22.5-9,35.32-12,19.31-4.46,39.24-2.79,58.51-1.17,18.88,1.59,38.41,3.23,57.6-.8,7.5-1.58,15-3.49,22.3-5.34,11-2.79,22.33-5.68,33.78-7.45,5.86-.9,11.92-1.59,17.77-2.26,14.9-1.7,30.3-3.46,44.53-8.89,32.63-12.47,42.6-38.23,53.16-65.5,5.13-13.25,10.43-27,18.57-39.3,6.37-9.66,14.88-14.21,25.31-13.54,26.82,1.72,58.28,37.13,66.93,54.84,7.29,14.92,8.35,28.44,3.16,40.2-12.72,28.8-59.72,42.56-94,52.6-6.78,2-13.19,3.86-18.6,5.65-21.89,7.23-45.71,17.19-51.35,44.08-1.92,9.16-2,18.65-2,27.84-.08,12.77-.16,26-5.3,38.26-8.08,19.29-25.6,28.93-42.54,38.27C864.91,838.49,845.87,849,839,871.83a153,153,0,0,0-3.8,17.76c-2.12,12.26-4.31,24.94-12.75,35-10.54,12.57-26.82,17.53-42.56,22.33-5.44,1.66-10.57,3.23-15.52,5.1-59.52,22.51-57,90.47-55,145.08.27,7.48.54,14.55.65,21.41q.3,17.88.62,35.76.29,15.33.54,30.66ZM465.39,1078.68a110.87,110.87,0,0,1-3-14.83c-.38-3.52-.5-6.72-.63-9.82-.37-9.31-.7-17.35-8-26.94-7.81-10.3-19.41-13.51-29.65-16.33-12-3.31-22.31-6.17-25.45-18.66-.77-3.08,5.13-5.27,10.84-7.38s11.63-4.3,13.07-8.08c11.23-29.56,23.92-37.44,38.63-46.56,7.05-4.38,14.34-8.9,22-16.17,30.57-28.88,39-64.72,43.23-96,.65-4.76,1.19-9.6,1.76-14.73,3.3-29.56,7-63.07,32.56-81.14,23.21-16.45,55.77-18.38,84.5-20.09,6.61-.39,12.85-.76,18.93-1.29,29.91-2.6,59.37-8.53,87.85-14.27,8.81-1.77,17.92-3.61,27-5.33,35.16-6.69,85.35-11.65,115,22.4,27.43,31.45,16.19,72-7.11,98.18-7.65,8.61-15.54,16.76-23.16,24.65-16.27,16.84-31.63,32.73-45.17,52.82-22.38,33.17-47.68,50.27-81.26,67.1-18.48,9.26-31.2,21.1-40,37.26-8.68,15.85-12.66,34.29-15.59,52l-1.47-.75-1-.51-.94,1.83,1,.49c1,.5,1.81,1,2.8,1.38l1.22.53.21-1.3c7.11-43.53,17.94-70.61,54.75-89.06,33.87-17,59.41-34.24,82-67.79,13.44-19.93,28.74-35.77,45-52.53,7.63-7.91,15.53-16.08,23.21-24.72,23.91-26.87,35.38-68.49,7.13-100.89-30.39-34.85-81.32-29.85-117-23.06-9,1.72-18.16,3.55-27,5.33-28.43,5.72-57.84,11.65-87.63,14.23-6.05.53-12.28.9-18.87,1.29-29,1.73-61.87,3.68-85.57,20.46C533.4,739,529.61,773,526.26,803c-.57,5.12-1.11,9.95-1.75,14.69-4.18,30.9-12.5,66.32-42.61,94.76-7.54,7.12-14.74,11.59-21.71,15.92-14.39,8.93-28,17.37-39.46,47.57-1.1,2.91-6.82,5-11.87,6.89-6.85,2.54-13.33,4.93-12.11,9.8,3.43,13.66,14.83,16.8,26.89,20.13,10.41,2.88,21.17,5.85,28.56,15.6,6.88,9.07,7.18,16.45,7.55,25.79.13,3.13.26,6.36.64,10a112.38,112.38,0,0,0,3,15.1c1.79,7.2,3.47,14,3.09,21.55l2.05.11C468.94,1093,467.13,1085.7,465.39,1078.68Zm148.33,21.58c22.74-31.12,48.51-66.38,44.66-106.44-.25-2.64-.53-5.26-.8-7.85-3.2-30.25-6-56.37,32.55-61,2.8-.34,5.44-.64,7.94-.91C721.92,921.41,732.8,920.2,748,897c10.38-15.92,24.09-24.05,38.6-32.65,8.05-4.77,16.37-9.71,24.3-16.14,12.58-10.21,20.09-25,27.35-39.27,5.18-10.2,10.54-20.74,17.7-29.54,2.66-3.27,5.66-6.5,8.83-9.92,14-15.09,29.86-32.2,11-51.75-19.52-20.28-55.64-32-82.24-26.61-13.64,2.75-26.36,8.89-38.67,14.83-11.87,5.73-24.14,11.65-37.25,14.55s-26.7,3.45-39.87,4c-11.62.48-23.64,1-35.31,3.06-7.63,1.37-15.28,3.14-22.68,4.86-12.91,3-26.26,6.09-39.69,7.05-.94-.08-1.87-.18-2.78-.27-9.12-.94-17-1.75-23.59,4.56-14.79,14.15-14.65,33.07-14.5,53.09a210.39,210.39,0,0,1-.59,21.75c-6.48,66.44-35,104.82-57.46,117.5a57.43,57.43,0,0,1-9.1,4c-5.36,2-10,3.63-14.43,10.52-1.37,2.13-2.49,4-3.48,5.69-3.58,6-5.74,9.69-13.79,14.74-9.28,5.81-13.51,11-12.93,15.94,1,8.67,16.88,14,30.87,18.74l4.3,1.45c4,12.57,6.45,20.24,6.46,34.13h1c0-14.14-2.48-21.88-6.58-34.68l-.08-.25-.24-.08-4.55-1.55c-13-4.39-29.24-9.85-30.18-17.89-.53-4.41,3.67-9.44,12.45-14.95,8.26-5.17,10.6-9.11,14.13-15.08,1-1.66,2.1-3.54,3.46-5.65,4.26-6.6,8.52-8.15,13.92-10.12a58.21,58.21,0,0,0,9.25-4c36.28-20.48,53.91-76.52,58-118.29a209.77,209.77,0,0,0,.59-21.85c-.14-19.81-.28-38.51,14.19-52.35,6.25-6,13.91-5.19,22.77-4.28.92.09,1.85.19,2.88.28,13.6-1,27-4.08,39.93-7.08,7.39-1.72,15-3.49,22.63-4.85,11.6-2.07,23.58-2.56,35.17-3,13.21-.55,26.88-1.11,40.05-4s25.56-8.87,37.48-14.63c12.25-5.91,24.91-12,38.42-14.75,26.29-5.29,62,6.27,81.3,26.33,18.14,18.85,3.29,34.85-11.06,50.34-3.19,3.43-6.19,6.67-8.87,10-7.23,8.88-12.62,19.48-17.83,29.73-7.21,14.19-14.67,28.87-27.07,38.93-7.88,6.39-16.16,11.3-24.18,16-14.62,8.67-28.43,16.86-38.94,33-14.89,22.83-25.62,24-49.14,26.64-2.5.28-5.15.57-8,.91-39.51,4.76-36.57,32.62-33.45,62.13.27,2.59.55,5.21.8,7.84,3.82,39.67-21.84,74.77-44.47,105.73-4.36,6-8.47,11.59-12.4,17.25l.84.58C605.26,1111.83,609.37,1106.21,613.72,1100.26Zm-81.18-23.09c2-24.14,4.64-57.19-20.33-66.12a111.93,111.93,0,0,0-12.78-2.95c-17.07-3.38-42.86-8.5-47.31-20.43-1.58-4.25-.25-9.15,4-14.56,3.82-4.92,11.43-7.79,18.15-10.33a86.79,86.79,0,0,0,8.65-3.6c7.47-3.82,14.78-8.28,21.85-12.59,3.1-1.89,6.19-3.78,9.31-5.63l4.3-2.5c14.58-8.46,36.62-21.23,40.71-37.05,2.53-9.76-1.65-18.12-5.68-26.2-5.6-11.21-10.89-21.8,3-34.76a60.21,60.21,0,0,1,7.87-5.92c5.61-3.76,10.91-7.31,13.22-14.74,2.16-7,.84-14.88-.44-22.53a80.42,80.42,0,0,1-1.51-13.34c0-10.18,3-18,8.83-23.19,7.8-7,21-9.57,39.28-7.64l1.89.2c10.87,1.15,20.27,2.15,31.38-.95a113.81,113.81,0,0,0,11.76-4.27c7.4-3,15-6.13,23.2-5.79,6.4.25,12.14,2.91,17.7,5.48,4.53,2.1,9.22,4.27,14.3,5.18,16.18,2.89,29-6,39.32-15,3.37-2.94,6.57-6.05,9.67-9.06,9.67-9.4,18-17.53,27.27-16.8,6,.47,12,4.76,18.32,13.13l.15.2h.25c19,.34,32.62,4.94,37.35,26.28,3,13.32-5.43,21.67-14.31,30.52-4.57,4.55-9.3,9.26-12.38,14.72-1.37,2.43-2.62,5.21-3.83,7.91-2,4.46-4.08,9.07-6.82,12.52s-5.52,4.88-8.51,6.46a35.94,35.94,0,0,0-6.67,4.25c-4.3,3.62-7.22,7.82-10.05,11.88-5.9,8.49-10.56,15.19-24.68,12.18-2.54-.54-5.24-1.24-8.08-2-10.38-2.72-22.14-5.79-29.15-1-3.39,2.3-5.36,6.12-6,11.68-.28,2.33-.52,4.54-.75,6.66-1.65,15.3-2.74,25.41-17,37.08-8.25,6.76-16.06,5.78-24.33,4.76-6.51-.81-13.24-1.65-20.68,1.12-7.75,2.9-14,9.11-18.49,18.44a77.24,77.24,0,0,0-6.72,25.28c-.81,8.17-2.58,9.33-5.51,11.27a25,25,0,0,0-6.84,6.28c-5.13,6.71-3.4,9.83-.54,15,.74,1.34,1.58,2.85,2.41,4.62,8.62,18.33,3.42,27.27-5.19,42.07-1,1.66-2,3.4-3,5.23a1.22,1.22,0,0,1-1,0c-.21-.18-.27-.66-.17-1.35l-1-.15a2.38,2.38,0,0,0,.51,2.27,2.2,2.2,0,0,0,2.14.2l.2-.06.1-.18c1.07-1.9,2.11-3.69,3.11-5.4,8.78-15.1,14.07-24.21,5.23-43-.85-1.8-1.7-3.33-2.44-4.68-2.85-5.14-4.27-7.71.45-13.88a24.31,24.31,0,0,1,6.6-6.06c3.07-2,5.1-3.37,6-12,3.24-32.46,19.61-41,24.55-42.85,7.21-2.69,13.81-1.87,20.2-1.08,8.49,1.06,16.51,2.06,25.1-5,14.56-11.93,15.66-22.21,17.34-37.76.23-2.11.47-4.32.75-6.64.65-5.25,2.48-8.84,5.61-11,6.62-4.49,18.14-1.48,28.3,1.18,2.87.75,5.57,1.46,8.14,2,14.79,3.14,19.86-4.15,25.74-12.6,2.78-4,5.66-8.15,9.86-11.68a34.23,34.23,0,0,1,6.49-4.13c3.08-1.63,6-3.18,8.83-6.73s4.92-8.22,6.95-12.74c1.26-2.8,2.45-5.44,3.8-7.83,3-5.33,7.68-10,12.2-14.49,8.69-8.65,17.67-17.6,14.6-31.47-4.87-21.91-18.74-26.7-38.09-27.09-6.44-8.48-12.63-12.84-18.91-13.33-9.7-.73-18.21,7.52-28.07,17.09-3.08,3-6.27,6.09-9.62,9-10.18,8.88-22.71,17.58-38.47,14.75-5-.88-9.58-3-14.05-5.1-5.65-2.62-11.48-5.32-18.09-5.58-8.38-.34-16.12,2.82-23.62,5.87a112.74,112.74,0,0,1-11.65,4.23c-10.93,3.06-20.23,2.07-31,.92l-1.9-.2c-18.56-2-32,.7-40.07,7.89-6,5.41-9.11,13.47-9.16,24A82,82,0,0,0,576,797.43c1.26,7.53,2.56,15.33.47,22.06-2.2,7.08-7.35,10.53-12.81,14.19a61.55,61.55,0,0,0-8,6c-14.4,13.49-9,24.41-3.17,36,3.95,7.91,8,16.09,5.61,25.48-4,15.41-25.8,28.05-40.23,36.42-1.53.88-3,1.72-4.31,2.51-3.12,1.84-6.22,3.74-9.33,5.63-7.05,4.31-14.34,8.76-21.78,12.56a87.4,87.4,0,0,1-8.54,3.55c-6.85,2.58-14.6,5.51-18.6,10.66-4.44,5.72-5.83,10.94-4.11,15.55,4.65,12.46,30.78,17.65,48.07,21.08a116.69,116.69,0,0,1,12.64,2.9c24.22,8.67,21.68,40,19.65,65.08-.39,4.83-.76,9.39-.9,13.41l1,0C531.78,1086.54,532.15,1082,532.54,1077.17Zm59.85-44.63.5-.4c8.12-6.52,11.38-10.45,11.62-14,.22-3.38-2.24-6-5.65-9.51a72.34,72.34,0,0,1-7.89-9.4c-9.73-14.26-.44-21.79,9.39-29.76,7-5.71,14.31-11.61,13.84-20.12a19.92,19.92,0,0,0-1.71-6.75c-1-2.49-1.86-4.63-1.14-8.52.41-2.25,2.37-5.71,3.95-8.49.61-1.08,1.18-2.09,1.62-2.94.91-1.77,1.77-3.63,2.65-5.51,4-8.67,8.22-17.63,17.65-20.37,3.55-1,8.93-.61,14.62-.15,9.09.74,18.48,1.49,23.56-3.22,3.17-2.94,4.4-4.88,4.09-6.47s-2-2.26-3.74-2.94-3.77-1.44-4.27-3.24c-1.68-6.13.14-8.77,3.78-14l1.25-1.82c7.36-10.83,16.08-20.09,24.57-26.09,5.91-4.18,13.55-3.35,20.94-2.55,8.89,1,17.29,1.88,21.3-6.31,1.27-2.61.34-5.63-.56-8.56-.7-2.3-1.43-4.68-1.07-6.76,3.54-1.21,8.58-2.5,14.37-4,21-5.34,52.66-13.41,58.22-30.54,2.41-7.39-.25-15.81-7.9-25-5.58-6.73-10.92-10-16.31-10h0c-8.59,0-15.62,8.38-22.42,16.49l-.21.24c-6.16,7.34-15.89,5.79-25.3,4.29-9.19-1.46-18.68-3-24.69,3.92-1,1.14-.79,2.91-.6,4.63.13,1.12.3,2.52-.07,3-2.77,3.69-14.83,2.13-20-.85-3.26-1.88-3.87-4.34-4.58-7.18-.59-2.35-1.2-4.78-3.31-7-3.72-3.89-7.38-5.71-11.16-5.64-6.69.17-12.11,6.46-16.89,12l-1.3,1.5c-1.22,1.39-2.12,2.64-2.92,3.74-2.51,3.43-3.76,5.15-10.3,5.29-4.79.12-6.19-1.22-8-2.89a15,15,0,0,0-5.6-3.55c-13.69-4.81-31-6.5-38.38,3.17-6.24,8.12-3.21,17.48-.27,26.53,3.06,9.45,6.23,19.22,0,28.6a44.71,44.71,0,0,1-5.9,6.87c-3.47,3.5-6.75,6.81-8.71,13.83-.65,2.32-1,3.88-1.2,5.13-.54,2.76-.68,3.5-3.69,7.16a18.26,18.26,0,0,1-5,3.66c-3.5,2-7.46,4.27-6.2,8.9,1.92,7,6.73,12.53,11,17.38,4,4.6,7.47,8.57,7.17,12.38-.17,2.08-1.48,4.12-4,6.22a81.15,81.15,0,0,1-7.77,5.58c-4.48,2.94-8.35,5.47-11.11,11a49.62,49.62,0,0,0-2.19,5.78c-1.19,3.5-2.53,7.46-3.93,9C549.88,947,548.84,947,547,947a15.68,15.68,0,0,0-5.92.92c-6.65,2.28-40.91,16.33-43.3,28.09a6.21,6.21,0,0,0,2.25,6.14c2.76,2.47,7.58,4.48,11.84,6.25,2.09.87,4.08,1.7,5.57,2.48a9.17,9.17,0,0,0,4,.7,8.65,8.65,0,0,1,3.62.59c.86.43,1.3,1.6,1.77,2.85.54,1.43,1.09,2.91,2.43,3.68a66.26,66.26,0,0,0,8.5,4c7.56,3.12,11.72,4.83,10.89,17.95l2,.13c.93-14.58-4.56-16.84-12.16-20a66.72,66.72,0,0,1-8.25-3.9c-.71-.41-1.11-1.49-1.54-2.63-.56-1.49-1.19-3.18-2.77-4a10.31,10.31,0,0,0-4.48-.8,7.82,7.82,0,0,1-3.09-.47c-1.57-.82-3.6-1.66-5.74-2.55-4.1-1.71-8.75-3.65-11.25-5.88a4.24,4.24,0,0,1-1.6-4.21c1.89-9.32,30.38-22.59,42-26.56a13.82,13.82,0,0,1,5.24-.81c2.4,0,4-.14,7-3.43,1.67-1.87,3-5.86,4.34-9.73a50.42,50.42,0,0,1,2.08-5.52c2.51-5,6-7.27,10.41-10.15a82.68,82.68,0,0,0,7.95-5.72c3-2.47,4.53-5,4.74-7.64.38-4.66-3.35-8.94-7.67-13.88-4.09-4.7-8.73-10-10.53-16.58-.8-2.95,1.47-4.42,5.24-6.58a19.85,19.85,0,0,0,5.62-4.14c3.33-4.06,3.55-5.15,4.12-8.07.24-1.21.53-2.72,1.16-5,1.82-6.5,4.77-9.48,8.19-12.93a46.05,46.05,0,0,0,6.14-7.18c6.83-10.21,3.5-20.46.29-30.37-2.9-8.94-5.64-17.38-.06-24.65,6.76-8.8,23.07-7,36.08-2.48a13,13,0,0,1,4.89,3.12c2,1.83,3.89,3.55,9.45,3.43,7.54-.16,9.28-2.54,11.9-6.13.78-1.07,1.66-2.28,2.82-3.6l1.31-1.52c4.5-5.22,9.6-11.14,15.39-11.29,3.18-.1,6.32,1.56,9.61,5,1.74,1.82,2.26,3.89,2.8,6.07.76,3,1.54,6.15,5.55,8.47,5.34,3.07,18.88,5.36,22.67.29.86-1.14.66-2.84.47-4.48-.13-1.15-.3-2.59.1-3,5.27-6,13.8-4.67,22.82-3.24,10,1.59,20.3,3.22,27.2-5l.21-.24c6.5-7.75,13.21-15.76,20.85-15.76h0c4.74,0,9.56,3,14.73,9.27,7.17,8.63,9.7,16.39,7.53,23.07-5.21,16-36.24,23.95-56.78,29.18-6.13,1.56-11.44,2.91-15.08,4.22l-.51.18-.14.51c-.75,2.77.13,5.64,1,8.41s1.59,5.18.68,7c-3.37,6.9-10.73,6.1-19.24,5.18-7.41-.8-15.8-1.71-22.34,2.91-8.69,6.14-17.59,15.59-25.09,26.62l-1.24,1.8c-3.74,5.41-6,8.68-4.07,15.73.77,2.81,3.4,3.81,5.52,4.62,1.1.42,2.35.9,2.45,1.41.07.34-.13,1.49-3.47,4.57-4.41,4.1-13.35,3.38-22,2.69-5.89-.48-11.45-.92-15.37.21-10.32,3-14.69,12.4-18.93,21.48-.87,1.86-1.72,3.69-2.62,5.45-.42.82-1,1.8-1.58,2.86-1.74,3.06-3.71,6.54-4.18,9.13a15.39,15.39,0,0,0,1.25,9.65,18.06,18.06,0,0,1,1.57,6.1c.42,7.46-6.14,12.78-13.09,18.41-9.64,7.83-20.58,16.7-9.78,32.52a72.7,72.7,0,0,0,8.1,9.66c3.16,3.3,5.24,5.47,5.08,8-.19,2.86-3.44,6.62-10.86,12.58l-.49.39c-6,4.79-24.07,19.35-33.63,16.78a7.11,7.11,0,0,1-4.86-4.77l-1.92.73a9.14,9.14,0,0,0,6.25,6,11.53,11.53,0,0,0,3,.37C569.41,1050.07,582.77,1040.28,592.39,1032.54ZM619,893.2c11.35-1.13,14.3-12.25,17.16-23,2.11-8,4.11-15.45,9.31-18.4a14.34,14.34,0,0,1,8.73-2c3.41.13,6.36.26,11.34-6.15a118.59,118.59,0,0,0,8.25-12.95c1.26-2.17,2.46-4.23,3.66-6.17,2.74-.44,6.8-1.07,9.5-.33l1.11.31-6.15-12.32a2.36,2.36,0,0,0,2-1c2.31-2.79,2-10.86-.62-14.16-3.84-4.9-14.09-5.94-19.7-4.78-4.53.94-7.64,3.36-10.94,5.92a57.14,57.14,0,0,1-4.65,3.37c-3.14,2-5.8,1.93-8.39,1.9-3.14,0-6.4-.08-10,3.77-5.63,6-7.26,15.66-8.83,25-1.32,7.8-2.56,15.17-6,20.16-3.71,5.42-13,26.62-7.25,36.25,1.82,3.09,5,4.64,9.39,4.64C617.57,893.31,618.28,893.27,619,893.2Zm20.55-88.66c2.6,0,5.55.07,8.94-2.06a56.54,56.54,0,0,0,4.74-3.43c3.2-2.48,6.22-4.83,10.51-5.72,5.48-1.14,15.24,0,18.69,4.41,2.42,3.09,2.48,10.64.63,12.87a1.37,1.37,0,0,1-1.89.36l-1.4-.72L686.17,823c-2.85-.43-6.49.15-9.1.57l-.23,0-.13.2c-1.25,2-2.49,4.14-3.8,6.4a118.6,118.6,0,0,1-8.17,12.84c-4.66,6-7.23,5.87-10.49,5.75A15.15,15.15,0,0,0,645,850.9c-5.57,3.16-7.62,10.87-9.79,19-2.77,10.42-5.63,21.19-16.27,22.25-5.11.51-8.64-.85-10.53-4-5.08-8.59,2.85-28.78,7.22-35.14,3.55-5.19,4.82-12.66,6.15-20.58,1.55-9.17,3.15-18.66,8.57-24.45a9.81,9.81,0,0,1,8.24-3.45ZM975.47,660.85c10.67-.27,24.73-16.21,35.78-30.07a49.51,49.51,0,0,0,4-6.09c2.88-4.91,5.15-8.8,11.63-9a10.6,10.6,0,0,1,6.41,1.87c2.49,1.45,4.84,2.82,10.88.34,8.12-3.34,13.59-8.37,15.8-14.54,2.12-5.92,1.23-12.78-2.56-19.84a76.18,76.18,0,0,1-3.59-8.58c-4.22-11.22-9.48-25.18-22.13-20.54l-8.29,8.21a42.68,42.68,0,0,1-4.64.62c-4.17.41-8.49.83-11.58,3.89-6.61,6.56-10.22,14.09-10.74,22.4a15.75,15.75,0,0,0,2.58,9.62c1.78,3.17,3.18,5.68.19,11.43-2.29,4.41-6,9.32-9.59,14.07-2.87,3.8-5.84,7.73-8.13,11.45-1.43,2.32-4.11,4.8-6.7,7.21-5.21,4.82-10.59,9.81-6.71,14.21a9.19,9.19,0,0,0,7.13,3.31Zm77.38-85.52a75.28,75.28,0,0,0,3.65,8.71c3.65,6.79,4.51,13.37,2.49,19-2.11,5.89-7.37,10.7-15.21,13.93-5.58,2.29-7.62,1.1-10-.28a11.76,11.76,0,0,0-7-2c-7,.19-9.57,4.5-12.48,9.49a50.68,50.68,0,0,1-3.91,6c-7,8.8-23.44,29.39-35,29.68a8.12,8.12,0,0,1-6.6-3c-3.22-3.65,1.57-8.08,6.63-12.78,2.65-2.45,5.38-5,6.88-7.43,2.27-3.67,5.22-7.58,8.08-11.36,3.61-4.79,7.35-9.73,9.68-14.22,3.25-6.24,1.57-9.23-.21-12.4-1.33-2.38-2.71-4.85-2.45-9.06.5-8.05,4-15.36,10.45-21.73,2.83-2.81,7-3.21,11-3.6a46,46,0,0,0,4.91-.66l.15,0,8.23-8.23C1043.76,551.19,1048.8,564.57,1052.85,575.33ZM60.73,826.92a88.69,88.69,0,0,0,9.78-3c8.2-3.22,13.45-8.33,19-13.74,1.89-1.84,3.84-3.74,6-5.63,11.84-10.5,20.87-17.56,37.92-19.95a202.44,202.44,0,0,1,21-1.41c21.64-.71,44-1.43,55.31-22.34,32-36.19,18.37-77.08,5.16-116.63-1.47-4.41-2.95-8.83-4.36-13.24-1-3.22-2.25-6.64-3.53-10.26-5.85-16.45-13.12-36.93-7.24-52.61,5.24-14,16.76-16.77,29-19.7,6.84-1.66,13.92-3.36,20-7.17,27.18-17,23-39.92,18.6-64.12-2.74-15-5.57-30.54-.36-44.75,15.23-41.57,54.92-55.53,95.54-64.43,9.3-2,19.07-5.37,28.52-8.6,30.34-10.36,61.72-21.08,86.74,6.75l.14.15h.21c21.87,1.2,36.16-7.2,53.51-22.09,2-1.74,4.12-3.61,6.32-5.55,15.31-13.56,34.36-30.42,52.21-28.25,8.35,1,15.86,6.28,22.3,15.64,8.94,13,16.58,27,24,40.54s15,27.51,23.94,40.54l.16.22h.39c9.37,0,15.72,3.55,22.43,7.3a74.73,74.73,0,0,0,13.26,6.27c9.6,3.18,22.15,2.49,37.31-2.07,19.61-5.88,46.46-13.94,65.34-27.21,4.88-3.43,8.82-7.7,12.62-11.83a102,102,0,0,1,9.31-9.28c2.9-2.43,7.09-4.34,11.52-6.36,7.06-3.23,14.35-6.57,17.11-12.41,2.69-5.68.56-12.33-1.5-18.77-1.29-4-2.51-7.84-2.62-11.39-.08-2.35-.11-4.52-.15-6.58-.16-8.84-.28-15.83-3.14-25.8-2.78-9.72-1.75-18.7,3.07-26.69,15.3-25.37,65.77-35.93,87.32-40.43,4.48-.94,8.91-2.1,13.19-3.23,16.18-4.24,31.47-8.25,47.62.06,4.19,2.17,8.64,4.7,13.34,7.38,12,6.81,25.51,14.54,37.59,17.27,10.08,2.27,17.17-1.36,24.67-5.22,2.32-1.2,4.72-2.43,7.28-3.54,6.78-2.91,13-2.95,19.64-3a77.17,77.17,0,0,0,13.17-.85c14.4-2.5,34.17-17.33,47.26-27.14l2.6-2,0-.17c.26-1,.49-2,.69-3,8-2,15-6.09,21.78-10a119.57,119.57,0,0,1,14.55-7.62c14.14-5.83,27.94-3.14,42.55-.3l5.41,1c2.24.41,4.38.61,6.45.8,4.61.43,9,.83,13.55,3.61a21.28,21.28,0,0,1,4.64,4.42c2,2.33,4.11,4.74,6.93,5.62,3.78,1.17,8.1.2,12.29-.73,3.51-.79,7.13-1.59,10.44-1.18,5.17.65,10.4,3,15.27,5.4,1.84.91,3.78,1.84,5.77,2.78,8.38,4,17.89,8.55,23.46,13.89,2.27,2.17,3.71,5.08,5.11,7.89a27.86,27.86,0,0,0,4.65,7.36,29,29,0,0,0,6.5,4.32,37,37,0,0,1,6.26,4c2.63,2.26,4.9,5.59,7.3,9.12,4.18,6.14,8.5,12.5,15.09,13.14,6.09.57,11.39-3.35,16.51-7.15,4.63-3.43,9.41-7,14.87-7.43,9.22-.76,13.63,3.24,18.75,7.86a44.21,44.21,0,0,0,9.82,7.28c13.87,7,18.1-.31,23.46-9.57,1.38-2.38,2.8-4.84,4.49-7.25,10.21-2.62,17.23-9.55,24.66-16.89,3-3,6.13-6.07,9.47-8.82,11.42-9.4,22.26-14.67,34.25-20.1,9.89-4.49,21.73-5,33.19-5.4,16-.62,32.48-1.26,43.84-12.9l-.74-.72c-11.07,11.35-26.65,12-43.14,12.6-11.55.45-23.5.91-33.58,5.48-12,5.47-23,10.77-34.47,20.25-3.38,2.78-6.51,5.88-9.54,8.88-7.37,7.28-14.33,14.16-24.37,16.67l-.19.05-.11.15c-1.77,2.5-3.23,5-4.65,7.48-5.28,9.14-9.1,15.74-22.1,9.17a43,43,0,0,1-9.6-7.12c-5.08-4.58-9.87-8.93-19.52-8.12-5.76.47-10.66,4.11-15.4,7.63-5.19,3.85-10.09,7.51-15.8,6.95-6.11-.6-10.3-6.75-14.35-12.7-2.33-3.43-4.74-7-7.47-9.32a38.14,38.14,0,0,0-6.43-4.1,28.16,28.16,0,0,1-6.27-4.14,26.56,26.56,0,0,1-4.46-7.1c-1.44-2.89-2.92-5.87-5.32-8.17-5.69-5.46-15.27-10-23.73-14.07-2-.95-3.92-1.87-5.75-2.78-5-2.46-10.28-4.83-15.6-5.5-3.49-.43-7.2.39-10.8,1.19-4.24.95-8.25,1.84-11.75.76-2.55-.79-4.54-3.09-6.47-5.31a22.4,22.4,0,0,0-4.88-4.63c-4.78-2.9-9.25-3.31-14-3.75-2-.19-4.16-.38-6.35-.79l-5.4-1c-14.12-2.75-28.73-5.59-43.14.35a121.53,121.53,0,0,0-14.68,7.68c-6.79,4-13.82,8.08-21.82,10l-.32.08-.06.33c-.2,1.05-.43,2.09-.7,3.1l-2.32,1.74c-13,9.75-32.66,24.49-46.81,27a78.09,78.09,0,0,1-13,.84c-6.73,0-13.08.08-20,3.07-2.6,1.12-5,2.36-7.35,3.57-7.64,3.93-14.25,7.33-24,5.12-11.93-2.69-25.41-10.37-37.3-17.15-4.71-2.69-9.17-5.23-13.38-7.4-16.5-8.5-32-4.44-48.35-.14-4.27,1.12-8.68,2.28-13.14,3.21-21.68,4.54-72.46,15.15-88,40.91-5,8.25-6,17.5-3.17,27.5,2.82,9.84,2.94,16.77,3.09,25.54,0,2.07.08,4.24.15,6.59.12,3.7,1.42,7.76,2.67,11.68,2,6.24,4.07,12.7,1.56,18-2.6,5.51-9.73,8.76-16.62,11.91-4.5,2.06-8.75,4-11.75,6.52a104.08,104.08,0,0,0-9.41,9.37c-3.76,4.08-7.66,8.31-12.45,11.68-18.75,13.17-45.5,21.21-65,27.07-15,4.49-27.3,5.19-36.7,2.07a74,74,0,0,1-13.08-6.19c-6.8-3.8-13.22-7.39-22.78-7.43-8.85-12.91-16.42-26.79-23.74-40.22s-15-27.6-24-40.63c-6.62-9.61-14.37-15-23-16.08-18.3-2.23-37.55,14.81-53,28.5-2.19,1.94-4.3,3.81-6.31,5.54-17.09,14.67-31.2,23-52.57,21.86-25.45-28.12-57.1-17.32-87.7-6.87-9.42,3.22-19.16,6.55-28.4,8.57-40.91,9-80.89,23-96.29,65.08-5.3,14.47-2.44,30.13.32,45.28,4.34,23.85,8.45,46.39-18.14,63.07-5.92,3.72-12.92,5.41-19.68,7-12.48,3-24.26,5.84-29.69,20.34-6,16,1.33,36.7,7.23,53.31,1.28,3.61,2.49,7,3.52,10.23,1.42,4.42,2.89,8.84,4.37,13.26,13.11,39.27,26.67,79.88-5,115.71-11.09,20.49-33.17,21.21-54.52,21.9a202.54,202.54,0,0,0-21.11,1.42c-17.33,2.44-26.48,9.58-38.45,20.2-2.15,1.91-4.11,3.82-6,5.67-5.49,5.33-10.67,10.37-18.67,13.51a87.55,87.55,0,0,1-9.67,3c-9,2.37-17.55,4.62-22.3,14l.91.47C43.63,831.42,51.93,829.23,60.73,826.92Zm131.28-73c13.06-13.87,16.66-48.14,17.65-67.34.79-15.38-5.06-29.2-10.71-42.55-3.81-9-7.74-18.28-9.67-28-4.7-23.76-8.79-56.81,9.88-69.36,7.6-5.1,15.53-6.76,23.19-8.36,13.54-2.83,25.23-5.26,30-25.66,3.23-13.67-.26-25.4-3.62-36.74-2.79-9.39-5.42-18.26-4.62-28.21,1.52-18.78,22.28-41.35,36-56.28,1.33-1.46,2.61-2.84,3.79-4.15,11.22-12.34,24.93-18,39.45-24,8.37-3.44,17-7,25.17-12,3.31-2,6.49-4.25,9.56-6.42,7.51-5.3,14.61-10.3,23.68-12.54,8.85-2.2,17.21-1.11,26.07,0a135.56,135.56,0,0,0,13.54,1.31c8.44.25,16.9-1.41,25.09-3,19.85-3.93,37-7.31,47.58,16.87l.13.28.31,0c16.53,1.21,20.23-8.3,24.11-18.38,2-5.13,4-10.43,7.84-14.82,5.94-6.84,16.06-9.79,25.85-12.63,5.61-1.63,10.91-3.17,15.42-5.4l1.52-.75c12-5.95,28.48-14.09,42.21-11.4,14.32,2.82,14.78,11.05,15.31,20.58.27,4.79.55,9.74,2.51,14.56,1.32,3.25,3.65,5.88,5.89,8.43s4.66,5.27,6,8.63a86.84,86.84,0,0,1,3,9.41,66,66,0,0,0,4.42,12.66c.9,1.8,1.86,4.19,2.87,6.71,2.61,6.52,5.57,13.91,9.63,17.09,5.71,4.48,10.1,3,14.75,1.46,2.91-1,5.9-2,9.4-1.51,3.28.44,5.48,2.29,7.81,4.26,2.1,1.76,4.27,3.59,7.27,4.28,7.37,1.69,10.17-1.37,13.41-4.92a27.14,27.14,0,0,1,5.71-5.13c6.77-4.26,14.21-2.77,22.09-1.19,6.14,1.24,12.48,2.51,19.14,1.26,7.81-1.46,15.18-2.85,20.58-9a24.71,24.71,0,0,0,4.11-7.11c1.45-3.38,2.82-6.58,7.18-9,3.76-2.07,8.14-2,12.38-1.92,4.61.07,9.37.15,13.5-2.44,5.53-3.47,10.63-11,11.86-17.47.68-3.61.15-6.72-1.52-9A72.71,72.71,0,0,0,818.91,315c-7.76-7-15.1-13.68-12-23.83,2.62-8.6,14.57-30.81,23.59-33.74l.14-.05.1-.11c1.73-2.11,3.44-4.25,5.14-6.39,11.91-14.89,24.23-30.29,42.9-35.46,12.54-3.47,22.08-5.2,36.58-4.37,13.28.73,18.48-2.77,26.36-8.08,2.33-1.57,5-3.36,8.13-5.21,17.4-10.21,51.08-6.15,70.43,3.88,4,2.09,7.2,5.8,10.27,9.39,4.55,5.33,9.25,10.84,16.85,11.09,5.85.18,10.19-1.78,14.38-3.68,5.07-2.28,9.86-4.45,17.07-2.95,23.46,4.9,32.86-3.14,47.09-15.31,3.21-2.75,6.54-5.59,10.36-8.57,6.25-4.89,12.94-6.4,20-8,3.35-.76,6.81-1.55,10.33-2.72,9.82-3.27,14.59-8.26,20.12-14,1.87-2,3.8-4,6.07-6.11,6.5-6.08,20.49-14.49,31.75-7.43,4.21,2.65,6.47,6.33,8.66,9.9,3.3,5.38,6.42,10.47,15.6,11.56,5.87.7,11.16-.17,16.27-1,6.75-1.1,13.12-2.15,20.79.07,12.06,3.49,22.52,9,31.16,14,8.4,4.82,15.47,5,23,5.26,5.21.16,10.59.32,16.48,2.18,9.15,2.9,11.59,10.3,14.16,18.14,1.36,4.14,2.77,8.42,5.22,12.18,7.09,10.87,18.41,14.49,33.66,10.76,1.51-.36,2.92-.72,4.26-1.06,11.64-3,17-4.32,29.72,2.27.21,1.06.43,2.12.65,3.17l.06.32.32.08c13.47,3.29,19.92-8.44,26.16-19.77,3.2-5.82,6.22-11.31,10.09-14.72s13.43-11.31,20.19-12.65c4.29-.84,8.4.09,12.38,1,5.27,1.2,10.72,2.44,16.72-.33,6.29-2.9,10.74-7.75,15-12.45,7.36-8,14.31-15.6,29.53-12.47,4.48.92,8.44,3,12.27,4.94,4.88,2.51,9.92,5.11,16.22,5.6,13.15,1,21.19-3.75,31.42-12.92a256.47,256.47,0,0,1,35.1-26.32c13.37-8.37,30.37-12.67,46.8-16.82,9.35-2.36,19-4.8,27.63-7.94l-.34-1c-8.59,3.12-17.79,5.44-27.54,7.91-16.51,4.17-33.58,8.48-47.1,16.94a257.63,257.63,0,0,0-35.23,26.43c-10,9-17.88,13.65-30.66,12.66-6.09-.48-11-3-15.83-5.49-3.89-2-7.92-4.08-12.53-5-15.79-3.26-22.93,4.53-30.49,12.78-4.24,4.62-8.62,9.4-14.72,12.21-5.68,2.62-10.72,1.47-16.06.26-4.09-.93-8.31-1.9-12.81-1-7,1.38-16.79,9.47-20.67,12.88s-7.07,9.1-10.31,15c-6,10.91-12.21,22.2-24.71,19.34-.21-1-.42-2.05-.62-3.08l0-.24-.22-.12c-13.25-6.9-19.07-5.42-30.67-2.47-1.33.34-2.73.7-4.24,1.07-14.78,3.61-25.74.14-32.56-10.33-2.38-3.65-3.76-7.86-5.11-11.94-2.65-8.09-5.17-15.74-14.82-18.79-6-1.91-11.48-2.08-16.75-2.23-7.36-.23-14.31-.44-22.49-5.13-8.7-5-19.22-10.55-31.39-14.07-7.88-2.28-14.67-1.17-21.24-.09-5,.82-10.26,1.68-16,1-8.68-1-11.68-5.91-14.85-11.08-2.25-3.67-4.57-7.46-9-10.23-11.78-7.39-26.28,1.27-33,7.55-2.29,2.15-4.23,4.18-6.11,6.15-5.66,5.92-10.12,10.6-19.71,13.79-3.46,1.15-6.9,1.93-10.22,2.69-7.2,1.63-14,3.17-20.44,8.2-3.83,3-7.17,5.85-10.39,8.6-14,12-23.24,19.88-46.21,15.09-7.53-1.57-12.7.76-17.7,3-4.09,1.85-8.3,3.76-13.92,3.58-7.15-.23-11.5-5.32-16.11-10.72-3.13-3.67-6.36-7.46-10.58-9.64-19.59-10.16-53.74-14.23-71.42-3.85-3.18,1.86-5.84,3.66-8.18,5.24-7.71,5.2-12.79,8.62-25.73,7.9-14.65-.82-24.27.91-36.91,4.41-19,5.26-31.42,20.79-43.43,35.81q-2.51,3.15-5,6.26c-9.47,3.26-21.38,25.41-24.11,34.37-3.3,10.77,4.27,17.63,12.28,24.89a72.3,72.3,0,0,1,9.7,10c1.5,2,2,4.84,1.33,8.17-1.18,6.24-6.08,13.46-11.39,16.79-3.88,2.43-8.29,2.36-13,2.28-4.36-.07-8.88-.15-12.88,2-4.68,2.57-6.12,5.92-7.64,9.47a23.84,23.84,0,0,1-3.93,6.84c-5.17,5.88-12.37,7.23-20,8.67-6.42,1.2-12.66-.05-18.71-1.26-8.08-1.62-15.72-3.16-22.84,1.33a28.33,28.33,0,0,0-5.92,5.3c-3.15,3.44-5.63,6.16-12.42,4.61-2.76-.63-4.74-2.3-6.84-4.07-2.34-2-4.76-4-8.33-4.48-3.73-.51-6.85.53-9.86,1.54-4.57,1.53-8.52,2.85-13.8-1.29-3.84-3-6.87-10.58-9.31-16.66-1-2.54-2-4.95-2.9-6.79a65.1,65.1,0,0,1-4.35-12.47,88.81,88.81,0,0,0-3-9.52c-1.41-3.52-3.83-6.27-6.18-8.93s-4.45-5.05-5.71-8.14c-1.9-4.66-2.17-9.52-2.44-14.23-.53-9.54-1-18.55-16.13-21.52-14.08-2.77-30.71,5.47-42.86,11.48l-1.52.75c-4.43,2.19-9.69,3.71-15.26,5.33-9.93,2.89-20.2,5.88-26.33,12.94-3.93,4.53-6,9.92-8,15.13-3.89,10.08-7.23,18.79-22.78,17.74-10.93-24.62-29.23-21-48.6-17.18-8.13,1.61-16.53,3.26-24.85,3-4.54-.15-9.07-.73-13.45-1.3-8.56-1.12-17.41-2.27-26.45,0-9.26,2.29-16.76,7.58-24,12.7-3.06,2.16-6.23,4.39-9.5,6.39-8.08,4.92-16.69,8.47-25,11.9-14.63,6-28.45,11.72-39.81,24.23q-1.79,2-3.8,4.14c-13.83,15-34.72,37.77-36.27,56.9-.82,10.14,2,19.51,4.65,28.58,3.33,11.21,6.78,22.81,3.62,36.21-4.66,19.76-16.06,22.14-29.25,24.9-7.76,1.62-15.79,3.29-23.55,8.51-19.18,12.89-15.07,46.36-10.32,70.41,1.95,9.85,5.91,19.19,9.73,28.23,5.61,13.25,11.41,27,10.63,42.1-1,19-4.53,53-17.37,66.68-11.69,12.42-32.45,10.56-49.13,9.08-2.44-.22-4.79-.43-7-.59l-.07,1c2.22.16,4.57.37,7,.59,5.79.51,12.05,1.07,18.28,1.07C172.29,764.34,184.1,762.28,192,753.88Z" transform="translate(0 -115.27)"/></g></g></g></svg>